<svg width="62" height="62" viewBox="0 0 62 62" fill="none" xmlns="http://www.w3.org/2000/svg">
<path fill-rule="evenodd" clip-rule="evenodd" d="M28.0902 0.129859C24.5898 0.44651 20.6971 1.5599 17.3457 3.20276C8.02878 7.76995 1.84201 16.281 0.234475 26.7417C-0.0496717 28.5906 -0.0829409 33.2077 0.175186 34.9521C0.449236 36.8041 0.921865 38.88 1.43048 40.4659C1.90026 41.9307 2.96242 44.5383 3.1852 44.7736C3.25925 44.8517 3.61874 44.7419 4.15648 44.4771C4.81293 44.1539 4.99429 44.0056 4.9407 43.8358C4.90238 43.7144 4.575 42.9041 4.21318 42.0351C1.10103 34.5601 1.31281 25.9361 4.78795 18.6337C8.33804 11.174 15.0101 5.48306 22.8474 3.23004C25.8506 2.36671 27.6684 2.11859 31.0029 2.1173C34.1319 2.11601 35.5009 2.28396 38.3169 3.01463C42.2402 4.03259 45.8834 5.85233 49.0447 8.37274L50.0635 9.18512L49.0306 10.2379C47.4576 11.841 47.2976 12.1965 47.864 12.8307C48.1322 13.1312 48.4655 13.2091 52.0839 13.8181C56.3826 14.5415 56.5906 14.5418 56.8891 13.8219C57.0147 13.5192 56.9021 12.8786 56.1364 9.53888C55.1586 5.2745 55.1058 5.15076 54.2575 5.14727C53.9117 5.14585 53.6742 5.33061 52.6651 6.38582L51.4791 7.62604L50.0293 6.51563C43.6877 1.6592 35.9812 -0.583996 28.0902 0.129859ZM54.1634 10.2011C54.3964 11.202 54.564 12.0439 54.5361 12.0718C54.4664 12.1414 50.9543 11.5434 50.856 11.4452C50.7804 11.3697 53.5155 8.39045 53.6659 8.38437C53.7065 8.38269 53.9304 9.20024 54.1634 10.2011ZM57.7671 17.5682C57.3576 17.7802 57.0228 17.9963 57.023 18.0485C57.0232 18.1007 57.263 18.6962 57.5559 19.3717C62.2602 30.2204 60.0389 42.6248 51.881 51.0615C49.4265 53.6002 46.9403 55.423 43.8833 56.9258C41.0204 58.3332 38.4804 59.136 35.2101 59.6671C33.2081 59.9921 28.7785 59.9903 26.7957 59.6636C21.5043 58.7919 16.9101 56.7929 12.961 53.6444L11.9422 52.832L12.9751 51.7792C14.5481 50.1761 14.708 49.8208 14.1418 49.1862C13.8734 48.8854 13.5376 48.8068 9.87088 48.1868C5.50874 47.4492 5.42589 47.4496 5.10976 48.2117C4.98213 48.5196 5.09099 49.1346 5.86796 52.4907C6.85219 56.742 6.90565 56.8664 7.74825 56.8698C8.09415 56.8713 8.33195 56.6861 9.34556 55.6261L10.5366 54.3806L10.8453 54.6223C13.6757 56.8389 15.1312 57.7683 17.7018 59.0012C24.2347 62.1342 31.6794 62.8357 38.8659 60.9955C40.889 60.4775 42.5241 59.8564 44.7895 58.7454C52.9722 54.7328 58.9483 47.2909 61.1493 38.3732C61.8131 35.6833 61.9955 34.1052 61.9999 31.0086C62.0042 28.1109 61.8959 27.0197 61.3502 24.4508C60.7847 21.7895 59.127 17.2789 58.6893 17.2105C58.5914 17.1953 58.1765 17.3562 57.7671 17.5682ZM41.7183 18.6571C36.481 19.4022 32.83 21.0246 30.059 23.8376C29.5755 24.3284 28.9347 25.0936 28.6351 25.5378C28.3354 25.9821 28.0608 26.3475 28.0248 26.3497C27.9888 26.352 27.528 26.0297 27.0006 25.6334C25.1575 24.2485 22.2809 23.0354 19.5464 22.4899C17.3964 22.061 15.7558 21.9312 13.0757 21.9779L10.5268 22.0223L10.2267 22.3709C9.83295 22.8284 9.7057 24.273 9.81897 27.0003C10.1905 35.9552 13.7096 41.6375 20.423 44.1229C23.3879 45.2205 26.0623 45.6192 30.4601 45.6192C35.7965 45.6192 39.1686 45.0175 42.5074 43.4695C47.9644 40.9393 50.9144 36.4034 51.9989 28.8751C52.2149 27.3767 52.214 21.7465 51.9976 20.342C51.8099 19.1237 51.6093 18.8655 50.7216 18.6999C49.5911 18.4889 43.1163 18.4581 41.7183 18.6571ZM49.899 20.7878C50.0745 21.0715 50.2046 24.3361 50.1128 26.1566C49.6331 35.6797 45.8295 40.9587 38.1227 42.7977C36.0567 43.2907 34.7051 43.4388 31.6501 43.5069L28.608 43.5748L35.5031 36.6753L42.3983 29.7757L41.65 29.0361L40.9018 28.2965L34.0429 35.1492L27.184 42.0017L27.0951 40.8689C26.9748 39.3365 27.1868 35.7879 27.5026 34.0471C28.1598 30.4243 29.4293 27.5844 31.342 25.4573C33.4846 23.0747 37.3883 21.3178 41.6827 20.8036C42.3234 20.7268 42.9934 20.6395 43.1714 20.6096C43.3493 20.5796 44.9113 20.5679 46.6425 20.5834C49.1355 20.6058 49.8128 20.6483 49.899 20.7878ZM17.2094 24.2222C19.8697 24.5706 21.748 25.1004 23.6686 26.0444C24.8527 26.6263 26.1937 27.5183 26.6947 28.0572L26.9821 28.3665L26.4818 29.7854C25.9419 31.316 25.3752 33.6775 25.2309 34.9975L25.1412 35.8187L22.2483 32.9315L19.3556 30.0444L18.6401 30.7501L17.9246 31.4558L21.4088 34.9494L24.8929 38.4432L24.9797 40.512C25.0275 41.6498 25.1001 42.7206 25.1412 42.8917C25.2147 43.1986 25.2064 43.2016 24.5024 43.1189C21.8928 42.8126 18.1122 40.9792 16.2375 39.111C13.5503 36.4333 12.0708 32.1107 11.8819 26.3862L11.8041 24.0265H13.7592C14.8345 24.0265 16.3871 24.1145 17.2094 24.2222ZM9.67812 50.2603C10.4449 50.389 11.1078 50.53 11.1513 50.5733C11.2238 50.6458 8.57364 53.5262 8.36082 53.6061C8.28315 53.6353 7.43822 50.3001 7.44158 49.9772C7.4421 49.9206 7.63201 49.9084 7.86334 49.9502C8.09467 49.9918 8.91138 50.1313 9.67812 50.2603Z" fill="#0198AF"/>
</svg>
