<svg width="63" height="62" viewBox="0 0 63 62" fill="none" xmlns="http://www.w3.org/2000/svg">
<path fill-rule="evenodd" clip-rule="evenodd" d="M15.1125 0.120587C11.4287 0.805087 8.36626 3.48818 6.87385 7.33851C6.4792 8.35687 6.46974 8.56306 6.79662 9.02311C7.12264 9.48208 7.7319 9.50665 8.0806 9.07479C8.2147 8.90874 8.51636 8.31968 8.75109 7.76594C9.62697 5.69915 11.0641 4.07562 12.9006 3.07834C14.3119 2.31195 15.1982 2.09045 16.9118 2.07582C18.6035 2.06146 19.5348 2.31786 21.1553 3.24413C22.3398 3.92125 23.9588 5.64478 24.6461 6.96048C25.1282 7.88313 25.6231 9.43658 25.7616 10.4618C25.8426 11.061 25.8312 11.0903 25.3187 11.6023C22.8725 14.0459 21.7265 16.1849 21.2351 19.2244C21.1055 20.0261 20.9253 20.7623 20.8349 20.8606C20.5831 21.134 18.9236 21.7071 17.9252 21.8655C15.1213 22.3101 11.7576 20.8188 9.93299 18.3222C8.85342 16.845 8.21397 15.2345 7.98846 13.425C7.81968 12.0705 7.6851 11.7139 7.27129 11.524C6.83978 11.3262 6.47471 11.4486 6.22179 11.8759C5.82108 12.553 6.2184 15.0402 7.04153 17.0077C7.51305 18.1348 8.35789 19.5618 8.83451 20.0363C8.97588 20.177 9.09143 20.3358 9.09143 20.3891C9.09143 20.4425 8.72612 20.5879 8.27945 20.7121C5.16284 21.5789 2.40584 24.3207 1.1695 27.7829C0.503012 29.649 0.47355 30.217 0.510166 40.4665L0.543629 49.8508L0.841529 50.4965C1.25134 51.3846 1.85805 52.0385 2.6573 52.4536L3.33227 52.8041L9.42485 52.8445L15.5174 52.8849L15.5194 55.5294C15.5206 57.2333 15.5777 58.4396 15.6801 58.9211C15.9662 60.2664 16.8348 61.3196 18.0485 61.7928C18.5136 61.9742 20.1745 61.9997 31.5218 61.9997C45.6727 61.9997 44.933 62.0394 46.0009 61.2223C46.6137 60.7534 47.2146 59.7068 47.3888 58.8049C47.4644 58.4135 47.5262 56.9217 47.5262 55.4892V52.8849L53.6188 52.8445L59.7114 52.8041L60.3863 52.4536C61.1856 52.0385 61.7923 51.3846 62.2021 50.4965L62.5 49.8508V39.984C62.5 30.2434 62.4966 30.1035 62.2341 29.0433C61.7039 26.9023 60.9649 25.4557 59.603 23.8935C58.3164 22.4176 56.6054 21.248 55.0688 20.7937L54.5484 20.6399L55.0365 20.0259C56.1327 18.6472 57.0378 16.7709 57.4861 14.9479C57.8487 13.4742 57.8751 10.7011 57.5405 9.2426C57.0363 7.04438 55.9301 4.84537 54.6745 3.54497C54.0069 2.85349 53.4311 2.72676 53.0539 3.18815C52.6555 3.67558 52.7692 4.17832 53.4795 5.06955C54.3418 6.15168 55.1254 7.59102 55.4793 8.74295C57.1001 14.0193 54.5267 19.697 49.7226 21.443C47.9276 22.0955 45.8752 22.0811 44.1158 21.4036C43.0337 20.987 42.8262 20.7759 42.7358 20.0001C42.3495 16.6856 41.0413 13.9874 38.813 11.9089L38.0413 11.1891L38.1121 10.4365C38.2558 8.90941 39.06 6.9476 40.0948 5.59967C42.4806 2.49211 45.983 1.33051 49.6077 2.44458C50.7856 2.8065 51.0697 2.75079 51.4024 2.09233C51.5683 1.76398 51.5685 1.68598 51.4044 1.35588C51.1549 0.85422 50.5381 0.546672 49.1338 0.223954C48.1724 0.00299158 47.6778 -0.0339251 46.4956 0.026618C43.6471 0.172673 41.3365 1.29977 39.3289 3.52268C37.8805 5.1262 36.9571 6.93108 36.4472 9.15494C36.3482 9.58666 36.2413 9.96858 36.2095 10.0037C36.1778 10.0389 35.7192 9.91636 35.1905 9.73137C32.9724 8.95559 30.3826 9.00955 28.2729 9.87541C27.967 10.0011 27.7111 10.0392 27.6529 9.96804C27.5983 9.90132 27.4882 9.5476 27.4081 9.18205C26.3819 4.49822 22.98 0.992489 18.6172 0.123272C17.7982 -0.0399658 15.9836 -0.0413083 15.1125 0.120587ZM34.1083 11.5341C35.2165 11.845 36.8162 12.7277 37.6687 13.4985C38.9036 14.615 40.0923 16.6054 40.5553 18.3319C40.6551 18.704 40.7852 19.5377 40.8445 20.1845C41.2744 24.8818 38.7169 29.1689 34.5732 30.697C33.7675 30.9941 33.4254 31.0409 32.0068 31.0483C30.1571 31.058 29.2315 30.8223 27.7491 29.9635C23.2193 27.3394 21.5942 21.0803 24.1643 16.1561C25.3656 13.8542 27.8069 11.9021 30.1196 11.394C31.1213 11.1738 33.0683 11.2423 34.1083 11.5341ZM12.1941 22.7892C12.5883 23.0043 13.1721 23.2763 13.4915 23.3936C14.2641 23.6775 16.013 24.0092 16.737 24.0092C17.5236 24.0092 19.0822 23.7669 19.8134 23.5309C20.9687 23.1581 21.2029 23.2926 21.5219 24.5128C21.8132 25.6272 22.4322 27.053 23.0787 28.0982C23.3878 28.5983 23.6409 29.1118 23.6409 29.2394C23.6409 29.5813 23.2832 29.8818 22.5385 30.1656C21.5593 30.5385 20.6353 31.0886 20.4929 31.3835C20.2978 31.7869 20.3444 32.402 20.5885 32.6466C20.9413 33.0001 21.3284 32.9551 22.4284 32.433C23.5856 31.8838 24.161 31.721 25.4171 31.5872C26.2028 31.5034 26.3502 31.5289 26.9933 31.86C28.7705 32.7749 30.1766 33.1377 31.9462 33.1377C33.7054 33.1377 35.1251 32.7736 36.8686 31.8754C37.5387 31.5301 37.5597 31.5281 38.5054 31.7117C41.9581 32.3826 44.6864 35.2872 45.4866 39.1445C45.6113 39.7452 45.6469 41.9958 45.6469 49.2703C45.6469 58.5078 45.6437 58.6283 45.3969 58.9946C45.2594 59.1985 44.9963 59.4899 44.8121 59.6421C44.4788 59.9177 44.4176 59.9189 31.5218 59.9189C18.626 59.9189 18.5648 59.9177 18.2315 59.6421C18.0473 59.4899 17.7842 59.1985 17.6467 58.9946C17.3998 58.6282 17.3967 58.5085 17.3967 49.2032C17.3967 40.5712 17.4149 39.7096 17.6134 38.9101C17.9001 37.7557 18.3542 36.628 18.9285 35.6442C19.1863 35.2026 19.3973 34.7628 19.3973 34.667C19.3973 33.9816 18.6975 33.4333 18.1284 33.6729C17.5142 33.9314 16.3337 36.2897 15.8489 38.2264C15.612 39.1726 15.5904 39.6566 15.5464 44.9845L15.4991 50.7234H9.56125C3.02322 50.7234 3.19745 50.7444 2.64469 49.8864L2.36231 49.4481L2.32872 40.4674C2.30047 32.9468 2.32472 31.2959 2.47798 30.3132C3.1087 26.2661 5.72129 23.3603 9.51579 22.4854C9.64916 22.4546 10.1452 22.4225 10.6179 22.4139C11.3398 22.4009 11.5925 22.461 12.1941 22.7892ZM54.6856 22.8118C57.919 23.9789 60.1879 26.9927 60.6315 30.7095C60.7056 31.3304 60.739 35.1878 60.7172 40.5881L60.6813 49.4481L60.3989 49.8864C59.8462 50.7444 60.0204 50.7234 53.4824 50.7234H47.5445L47.4936 44.9845C47.4454 39.5574 47.428 39.188 47.1733 38.1826C46.1884 34.297 43.5524 31.1944 40.3121 30.1068C39.912 29.9725 39.5647 29.8475 39.5405 29.8291C39.5161 29.8107 39.7693 29.4452 40.1028 29.0167C41.2559 27.536 42.1153 25.6978 42.4538 23.9881C42.5319 23.5936 42.6376 23.2175 42.6888 23.1521C42.7415 23.0848 42.9944 23.1275 43.2719 23.2505C44.347 23.7268 45.5041 23.9346 47.0412 23.9277C48.8074 23.9197 50.027 23.6278 51.4307 22.8773C52.2338 22.4477 52.3886 22.41 53.1094 22.4668C53.5462 22.5013 54.2554 22.6565 54.6856 22.8118Z" fill="#0198AF"/>
</svg>
