<svg width="62" height="62" viewBox="0 0 62 62" fill="none" xmlns="http://www.w3.org/2000/svg">
<path fill-rule="evenodd" clip-rule="evenodd" d="M17.6765 0.119318C16.7166 0.40781 16.0592 1.19595 15.9428 2.19791C15.909 2.48834 15.7971 5.07943 15.6939 7.95586L15.5063 13.1859L18.0728 24.1179C19.4844 30.1304 20.6064 35.0827 20.5661 35.1229C20.5259 35.163 20.1799 35.2341 19.7972 35.2806C19.4145 35.3271 18.9101 35.4012 18.6764 35.4451L18.2515 35.525L15.459 28.7681C13.9231 25.0519 12.5572 21.8499 12.4236 21.6527C12.0301 21.0717 11.5817 20.8122 10.8806 20.7595C10.2792 20.7143 9.9474 20.8318 5.68518 22.5981C3.18103 23.636 0.995584 24.5859 0.82864 24.7093C0.661696 24.8326 0.42324 25.1074 0.29867 25.3197C-0.203739 26.1762 -0.214544 26.1442 3.91351 36.0823C6.02307 41.1613 7.74921 45.3675 7.74921 45.4294C7.74921 45.4914 7.44385 45.5778 7.07075 45.6216C5.01486 45.8629 2.86438 47.1584 1.61224 48.9104C0.0213619 51.1361 -0.419491 53.8642 0.411706 56.3395C0.873077 57.7132 1.36359 58.4907 2.4591 59.5843C3.54915 60.6727 4.30689 61.1506 5.74589 61.6577L6.71719 62H30.9999H55.2826L56.2539 61.6669C58.9121 60.7551 60.8544 58.769 61.6777 56.1211C62.0448 54.94 62.0717 52.7042 61.7321 51.5755C61.3241 50.2192 60.5837 48.9815 59.5931 47.9997C58.1455 46.5649 56.5083 45.765 54.658 45.5885C54.1721 45.5422 53.7471 45.4768 53.7136 45.4433C53.68 45.4098 53.7117 44.8395 53.7841 44.1758C53.8822 43.2757 53.8783 42.6128 53.7687 41.5655L53.6218 40.1616L55.528 35.5653C56.5765 33.0373 57.8087 30.0579 58.2664 28.9443C59.3411 26.3296 60.0072 25.1387 61.3771 23.3817C62.2449 22.2684 62.2558 22.4958 61.093 17.4827C60.4524 14.722 59.9825 12.9432 59.8566 12.8031C59.5532 12.4655 59.1545 12.3505 58.7803 12.4926C58.2491 12.6941 51.4328 16.9724 51.004 17.3733C50.7815 17.5813 50.5861 17.9024 50.5541 18.1125C49.9936 21.791 49.8895 22.1399 47.9717 26.778C47.1287 28.8163 46.4309 30.4969 46.421 30.5125C46.4111 30.5281 45.9422 30.3469 45.3791 30.1098C44.8161 29.8727 44.0002 29.5811 43.5662 29.4616C42.638 29.206 42.6976 29.5311 43.0049 26.4025C43.1219 25.2115 43.2213 23.1123 43.2287 21.6751L43.2419 19.0899L43.7709 18.3437C46.0082 15.1869 46.4345 11.0786 44.9062 7.39876C43.9287 5.04488 42.0138 2.42616 40.0117 0.705635C39.0832 -0.092444 38.6912 -0.182385 38.1538 0.27908C37.7946 0.587571 37.7742 0.749272 37.9209 2.12494C38.0382 3.22266 37.8659 4.02935 37.2489 5.27144C36.6898 6.39716 35.6636 7.80665 34.1679 9.50317C32.6022 11.2793 32.1574 12.3011 32.1548 14.1284C32.1526 15.5785 32.6441 16.9631 33.621 18.2592L33.9998 18.7619L33.7478 20.6229C33.3508 23.5556 33.2469 25.0753 33.2464 27.9574L33.246 30.6429L32.7234 30.9487C32.4358 31.1169 31.8596 31.5105 31.4428 31.8233C31.026 32.136 30.6698 32.3718 30.6513 32.3472C30.6327 32.3225 29.5133 27.5568 28.1637 21.7567C26.814 15.9565 25.5969 10.9655 25.4587 10.6655C25.3205 10.3655 24.1159 8.1018 22.7815 5.63508C20.2207 0.900912 19.858 0.377991 18.965 0.13047C18.4255 -0.019109 18.145 -0.0215333 17.6765 0.119318ZM19.6174 4.18693C20.2351 5.31616 20.7404 6.28043 20.7404 6.32988C20.7404 6.37922 20.5124 6.57037 20.2337 6.75462C19.7921 7.04651 19.6085 7.08966 18.8071 7.08966H17.8872L17.9298 4.72597C17.9709 2.44677 18.0448 1.99476 18.3607 2.09245C18.4342 2.11524 18.9996 3.05769 19.6174 4.18693ZM41.3695 5.26877C42.546 6.97244 43.4111 9.07625 43.7002 10.9364C44.0075 12.9138 43.2454 15.6284 41.8728 17.445L41.6536 17.7352L38.582 17.5518L35.5104 17.3684L35.2169 17.017C35.0556 16.8238 34.7783 16.3656 34.6009 15.999C34.325 15.429 34.2782 15.1741 34.2782 14.2413C34.2781 12.7937 34.5437 12.2442 36.1537 10.3625C38.2474 7.91501 39.6635 5.54793 39.8752 4.14111L39.9541 3.61685L40.3678 4.0171C40.5953 4.23735 41.0461 4.80052 41.3695 5.26877ZM22.6961 9.82269C23.152 10.6529 23.5263 11.414 23.5279 11.514C23.5387 12.2244 22.396 13.6453 21.5202 14.0107C20.4579 14.4538 18.8211 14.0753 17.9807 13.1922L17.5886 12.7802L17.6657 10.9956L17.7429 9.21092H18.6984C19.7243 9.21092 20.7262 8.9377 21.3196 8.49599C21.502 8.36035 21.6997 8.26375 21.7591 8.2812C21.8186 8.29878 22.2401 8.99237 22.6961 9.82269ZM40.5976 9.24122C40.2968 9.50499 40.2856 9.56644 40.2569 11.1067L40.2273 12.6995L39.6506 13.8365C38.9956 15.1279 38.9441 15.5168 39.372 15.9438C40.0542 16.625 40.8482 16.1628 41.5882 14.6542C42.202 13.4027 42.3817 12.5021 42.3321 10.9267C42.2903 9.59517 42.2781 9.5422 41.9494 9.26001C41.5233 8.89406 41.0018 8.88679 40.5976 9.24122ZM26.6163 24.2532C27.8587 29.5596 28.8752 33.9832 28.8752 34.0834C28.8752 34.1834 28.5815 34.7035 28.2224 35.2389C27.8633 35.7744 27.543 36.2874 27.5105 36.3787C27.478 36.4701 27.4254 36.5176 27.3935 36.4843C27.3617 36.4509 26.6725 33.5921 25.862 30.1313C24.6837 25.0996 24.3349 23.782 24.1217 23.5554C23.5702 22.9694 22.4435 23.3735 22.4371 24.1595C22.4354 24.3713 23.0182 27.0402 23.7321 30.0903C24.446 33.1404 25.0032 35.6629 24.9701 35.6959C24.9191 35.7468 22.9277 35.2987 22.832 35.2148C22.7659 35.1567 18.3125 16.0794 18.3552 16.0368C18.3793 16.0128 18.7188 16.0762 19.1096 16.1779C19.5005 16.2794 19.9704 16.3626 20.1543 16.3626C20.5287 16.3626 20.5123 16.3215 21.0037 18.4839C21.3187 19.8706 21.5775 20.2415 22.2297 20.2415C22.6857 20.2415 23.1268 19.9046 23.2351 19.4738C23.2734 19.3219 23.1374 18.4994 22.9332 17.6459C22.7288 16.7924 22.5617 16.0248 22.5617 15.94C22.5617 15.8553 22.7132 15.7233 22.8983 15.6467C23.0835 15.5701 23.4797 15.2963 23.7786 15.0382C24.0775 14.7801 24.33 14.577 24.3398 14.5869C24.3495 14.5969 25.3738 18.9467 26.6163 24.2532ZM56.0804 18.0077C55.1528 20.2597 55.13 20.7863 55.9478 21.0709C56.4366 21.241 56.9993 21.0419 57.2152 20.6223C57.3554 20.3502 58.262 18.1923 58.6485 17.2111C58.7614 16.9243 58.7729 16.921 58.8598 17.1505C58.9103 17.2838 59.1815 18.3882 59.4627 19.6047L59.9738 21.8165L59.5545 22.3321C58.921 23.1109 58.1092 24.4162 57.4845 25.6607C56.9263 26.7731 56.9222 26.7775 56.294 26.9638C55.4478 27.2147 54.7975 27.1992 53.8452 26.9055C52.9189 26.6199 51.9146 25.7923 51.463 24.9427L51.1849 24.419L51.6132 23.0878C52.0181 21.8299 52.325 20.5006 52.4943 19.2708L52.5696 18.7242L54.6518 17.4297C55.7971 16.7175 56.7529 16.1537 56.7759 16.1767C56.7988 16.1994 56.4858 17.0235 56.0804 18.0077ZM39.9995 19.7153L41.1072 19.7902L41.1705 20.4863C41.2052 20.8691 41.2047 21.5434 41.1691 21.9847L41.1047 22.787L39.4519 22.7777C37.7357 22.7681 35.6056 22.5528 35.6245 22.3909C35.6305 22.3397 35.7062 21.6637 35.7927 20.8888L35.95 19.4796L37.4208 19.5599C38.2298 19.6041 39.3903 19.6739 39.9995 19.7153ZM11.1337 23.7163C11.3423 24.2275 11.4993 24.6575 11.4826 24.6719C11.4659 24.6863 10.5624 25.0667 9.47462 25.5172C7.30544 26.4158 6.94812 26.6855 7.07184 27.3306C7.15331 27.7556 7.65329 28.2417 8.00916 28.2417C8.14465 28.2417 9.17169 27.8675 10.2915 27.4101L12.3273 26.5786L12.7037 27.4915C12.9107 27.9935 13.0572 28.4414 13.029 28.4868C13.0009 28.5322 12.7166 28.6672 12.3973 28.7869C10.897 29.349 10.5417 29.6419 10.5417 30.3173C10.5417 30.6415 11.1817 31.272 11.5106 31.272C11.653 31.272 12.2375 31.0787 12.8095 30.8423C13.3813 30.606 13.8675 30.4307 13.8897 30.4529C13.9753 30.5383 14.6839 32.268 14.6474 32.3028C14.6263 32.323 13.7349 32.7019 12.6665 33.1448C11.598 33.5877 10.6174 34.0554 10.4871 34.1841C10.1222 34.5448 10.1702 35.2348 10.5849 35.5909C10.7689 35.7489 11.0469 35.8782 11.2027 35.8782C11.3586 35.8782 12.345 35.5211 13.3948 35.0846C14.4446 34.6482 15.3572 34.3089 15.4227 34.3308C15.5534 34.3743 16.2482 35.9295 16.2482 36.1786C16.2482 36.2638 16.0793 36.4035 15.8729 36.4889C15.6665 36.5742 15.161 36.8611 14.7498 37.1263C12.5209 38.5641 10.9196 40.6023 10.0009 43.1711C9.78361 43.7787 9.57624 44.2274 9.54018 44.1681C9.50412 44.1087 7.82157 40.0808 5.80125 35.2171C2.8628 28.1435 2.16176 26.353 2.29774 26.269C2.4954 26.1469 10.5652 22.7987 10.6786 22.7917C10.7203 22.7892 10.9253 23.2052 11.1337 23.7163ZM39.4078 24.8516L41.0165 24.8606L41.0127 25.3693C41.0107 25.6491 40.9298 26.5325 40.8332 27.3325C40.7364 28.1326 40.6561 28.8281 40.6548 28.878C40.6534 28.928 40.2562 28.97 39.772 28.9714C38.4632 28.9749 37.2415 29.1717 35.5833 29.6463L35.3101 29.7245L35.3114 27.5589C35.3121 26.3677 35.3447 25.2006 35.3836 24.9653L35.4546 24.5376L36.6268 24.6902C37.2715 24.7741 38.5229 24.8467 39.4078 24.8516ZM51.7926 28.2489C52.6194 28.7726 54.1028 29.2114 55.0461 29.2114C55.4766 29.2114 55.8289 29.2645 55.8289 29.3294C55.8289 29.4814 52.7809 36.8741 52.6603 37.0143C52.6103 37.0726 52.4063 36.7999 52.2068 36.4083C51.469 34.9593 50.1179 33.3003 48.7532 32.1674L48.1731 31.6859L49.1629 29.2956L50.1527 26.9053L50.6845 27.3947C50.9771 27.6638 51.4757 28.0483 51.7926 28.2489ZM42.7375 31.3762C44.8835 31.9403 46.7052 32.9662 48.2257 34.4669C49.9403 36.1593 51.079 38.297 51.5925 40.7874C51.8109 41.8472 51.7705 44.239 51.5155 45.333C51.1468 46.9152 51.1477 46.9812 51.5454 47.3782L51.9012 47.7335L53.4098 47.6691C54.796 47.6101 54.9883 47.6292 55.7806 47.9051C57.9129 48.6476 59.3973 50.2778 59.9066 52.4365C60.6293 55.4992 58.8012 58.6676 55.7075 59.7135C55.065 59.9307 54.131 59.9393 31.0606 59.9393C11.1839 59.9393 6.99839 59.9112 6.59578 59.7747C4.54511 59.0799 3.04346 57.6597 2.40252 55.8082C1.26464 52.5222 3.11947 48.8801 6.44972 47.8614C7.14591 47.6484 7.46874 47.6199 8.51375 47.6792C9.19512 47.7177 9.95578 47.7842 10.2043 47.8268C10.5942 47.8936 10.7037 47.8565 11.0041 47.5566C11.3069 47.2545 11.3611 47.0912 11.4211 46.3013C11.6795 42.9021 13.7495 39.8243 16.7945 38.3117C19.9656 36.7364 23.4237 36.9062 26.4976 38.7882C27.4869 39.3939 27.8512 39.495 28.259 39.2771C28.3788 39.2131 28.7809 38.5448 29.1526 37.7922C30.8907 34.272 33.9447 31.9262 37.72 31.2111C39.003 30.968 41.4978 31.0501 42.7375 31.3762ZM37.192 33.2141C34.682 33.7171 32.3555 35.9923 32.1789 38.1163C32.1312 38.6917 32.1565 38.7722 32.4598 39.0104C32.6431 39.1544 32.9423 39.2722 33.1246 39.2722C33.4892 39.2722 34.0959 38.8604 34.0959 38.613C34.0959 38.5269 34.2901 38.0689 34.5273 37.5954C35.2223 36.2086 36.2249 35.5092 37.9462 35.2108C38.9843 35.0308 39.3167 34.7802 39.3167 34.1777C39.3167 33.6723 39.2039 33.4646 38.8223 33.2676C38.4519 33.0763 37.9602 33.0602 37.192 33.2141ZM17.5639 40.7292C16.5524 41.2507 15.4724 42.3032 15.0367 43.1924C14.5804 44.1236 14.3877 45.3531 14.6125 45.899C15.0398 46.9371 16.3572 46.6651 16.5537 45.498C16.7985 44.0446 17.3551 43.1987 18.4507 42.6148C18.8086 42.4242 19.2242 42.1572 19.3745 42.0217C19.9919 41.4651 19.5071 40.3565 18.6515 40.369C18.4315 40.3722 17.9421 40.5343 17.5639 40.7292ZM29.8601 45.767C27.0195 46.5297 25.0236 49.3332 25.2671 52.2183C25.4441 54.3152 26.3478 55.3166 27.3517 54.5282C27.646 54.297 27.676 54.2075 27.6251 53.71C27.5936 53.4027 27.5021 52.9059 27.4215 52.6058C26.9331 50.7863 28.1203 48.5596 29.945 47.8728C30.5074 47.661 30.8272 47.6216 31.6677 47.6605C33.2076 47.7319 34.1492 48.3094 35.1065 49.7693C35.6765 50.6388 35.9618 50.6938 37.0406 50.1426C38.0011 49.6518 38.7791 49.5625 39.6982 49.8374C40.2735 50.0094 41.0282 50.6368 41.3907 51.2442C41.7583 51.8601 41.9589 51.9998 42.4755 51.9998C43.0504 51.9998 43.4448 51.5994 43.4448 51.0156C43.4448 50.1511 42.0814 48.6128 40.8004 48.0318C39.856 47.6034 38.1076 47.5125 37.1586 47.8422L36.5181 48.0649L35.7623 47.3335C34.2023 45.8237 31.9122 45.216 29.8601 45.767Z" fill="#0198AF"/>
</svg>
