<svg width="63" height="62" viewBox="0 0 63 62" fill="none" xmlns="http://www.w3.org/2000/svg">
<path fill-rule="evenodd" clip-rule="evenodd" d="M29.498 0.123469C26.7062 0.478691 23.8934 1.69732 21.6115 3.54016C18.6638 5.92062 16.6951 9.26622 16.0392 13.0098C15.6682 15.1267 15.8481 18.1602 16.4624 20.1455C18.1848 25.7118 22.6655 29.7954 28.3803 31.0073C30.1264 31.3775 32.8736 31.3775 34.6197 31.0073C40.3711 29.7877 44.8856 25.6515 46.5484 20.078C47.4065 17.202 47.358 13.752 46.4186 10.8298C44.141 3.74448 36.9248 -0.821447 29.498 0.123469ZM34.2299 2.70376C34.7638 2.81531 35.7852 3.14182 36.4996 3.42935C40.3214 4.96723 43.192 8.21751 44.3283 12.2934C44.6356 13.3957 44.6614 13.6587 44.6595 15.6688C44.6573 18.0548 44.516 18.8469 43.7623 20.6954C41.5827 26.0418 35.9342 29.4271 30.2004 28.8235C28.5657 28.6514 27.3768 28.3251 25.9554 27.6587C22.2296 25.9114 19.7177 22.8925 18.6103 18.8313C18.381 17.9899 18.3422 17.5358 18.3405 15.6688C18.3386 13.6587 18.3644 13.3957 18.6717 12.2934C20.1007 7.16735 24.1497 3.51049 29.4278 2.5789C30.5943 2.37301 32.9393 2.43392 34.2299 2.70376ZM27.8317 6.87801L27.4354 7.23117L27.3953 9.42137L27.3551 11.6116H25.2436H23.1321L22.7358 11.965L22.3395 12.3184V15.6688V19.0193L22.7358 19.3727L23.1321 19.7261H25.2436H27.3551L27.3953 21.9163L27.4354 24.1065L27.8317 24.4596L28.228 24.8128H31.5H34.772L35.1683 24.4596L35.5646 24.1065L35.6047 21.9163L35.6449 19.7261H37.7564H39.8679L40.2642 19.3727L40.6605 19.0193V15.6688V12.3184L40.2642 11.965L39.8679 11.6116H37.7564H35.6449L35.6047 9.42137L35.5646 7.23117L35.1683 6.87801L34.772 6.52485H31.5H28.228L27.8317 6.87801ZM33.1986 11.0646V13.1821L33.5524 13.5777L33.9062 13.9732L36.1004 14.0133L38.2945 14.0534V15.6786V17.3038H36.2806C34.0744 17.3038 33.5957 17.414 33.3368 17.9814C33.2508 18.1698 33.1986 19.06 33.1986 20.3373V22.3905H31.5H29.8014V20.3373C29.8014 19.06 29.7492 18.1698 29.6632 17.9814C29.4043 17.414 28.9256 17.3038 26.7194 17.3038H24.7055V15.6786V14.0534L26.8591 14.0133C29.1553 13.9706 29.4108 13.9093 29.6714 13.3383C29.7475 13.1716 29.8014 12.2021 29.8014 11.0003V8.94709H31.5H33.1986V11.0646ZM7.96026 16.99C6.96802 17.1939 6.10123 17.8159 5.59589 18.6867C5.49276 18.8644 5.41996 18.875 5.11057 18.7573C4.70362 18.6025 3.66782 18.5748 3.07379 18.7028C2.12826 18.9065 1.25747 19.5841 0.768262 20.4971L0.5 20.9977V28.8095C0.5 34.8119 0.536885 36.7896 0.659429 37.3479C0.900391 38.4465 1.40112 39.9265 1.80673 40.739C2.38439 41.8962 5.7558 47.8048 6.26806 48.5579C7.12915 49.8236 8.0788 50.5426 11.2876 52.3585L14.271 54.0468V57.6087V61.1706L14.6865 61.5853L15.1019 62L22.0243 61.9668L28.9467 61.9336L29.283 61.5979L29.6194 61.2622L29.6564 54.2706C29.6815 49.5109 29.6493 46.9697 29.5556 46.3102C29.3304 44.7264 28.5534 43.4018 27.2409 42.3642C26.9721 42.1515 25.6227 41.4703 24.2425 40.8502L21.7329 39.7228L21.6722 34.9019C21.6034 29.4334 21.6137 29.4941 20.573 28.4761C19.8189 27.7385 18.9463 27.4341 17.82 27.5159L16.9403 27.5797V25.4135C16.9403 23.5474 16.9068 23.1581 16.6989 22.6031C16.4396 21.9114 15.7069 21.1057 15.0263 20.764C14.4221 20.4606 13.4032 20.3074 12.8359 20.4346C12.2955 20.5558 12.2095 20.4782 12.2072 19.8675C12.2053 19.3368 11.6749 18.3666 11.0974 17.8374C10.2288 17.0415 9.14032 16.7476 7.96026 16.99ZM53.6938 16.9465C52.9569 17.0648 52.2864 17.4225 51.7386 17.9899C51.2354 18.5112 50.7983 19.3803 50.7943 19.8675C50.7892 20.4791 50.7041 20.5557 50.1641 20.4346C49.5968 20.3074 48.5779 20.4606 47.9737 20.764C47.2931 21.1057 46.5604 21.9114 46.3011 22.6031C46.0932 23.1581 46.0597 23.5474 46.0597 25.4135V27.5797L45.18 27.5159C44.0537 27.4341 43.1811 27.7385 42.427 28.4761C41.3863 29.4941 41.3966 29.4334 41.3278 34.9019L41.2671 39.7228L38.7575 40.8502C37.3773 41.4703 36.0279 42.1515 35.7591 42.3642C34.4466 43.4018 33.6696 44.7264 33.4444 46.3102C33.3507 46.9697 33.3185 49.5109 33.3436 54.2706L33.3806 61.2622L33.717 61.5979L34.0533 61.9336L40.9757 61.9668L47.8981 62L48.3135 61.5853L48.729 61.1706V57.6087V54.0468L51.7124 52.3585C54.9212 50.5426 55.8709 49.8236 56.7319 48.5579C57.2442 47.8048 60.6156 41.8962 61.1933 40.739C61.5989 39.9265 62.0996 38.4465 62.3406 37.3479C62.4631 36.7896 62.5 34.8119 62.5 28.8095V20.9977L62.2317 20.4971C61.4893 19.1115 59.8955 18.3684 58.3141 18.6703C58.0138 18.7276 57.7049 18.7843 57.6275 18.7962C57.5502 18.808 57.3585 18.6293 57.2015 18.3989C56.4603 17.3116 55.0526 16.7287 53.6938 16.9465ZM55.0959 19.6955L55.4022 20.0014V25.6468V31.2923H54.2496H53.097L53.1038 25.9028C53.1113 19.9705 53.1294 19.8006 53.7923 19.4699C54.2801 19.2267 54.6987 19.2991 55.0959 19.6955ZM9.31468 19.4935C9.87523 19.793 9.90313 20.0956 9.90301 25.8686V31.2923H8.75037H7.59785V25.6468V20.0014L7.91768 19.682C8.26359 19.3368 8.86854 19.2552 9.31468 19.4935ZM4.58278 21.1891C5.18288 21.5097 5.19489 21.6775 5.15643 29.17L5.12064 36.1492L5.47953 36.7785C5.91378 37.5396 11.0298 43.0738 11.4448 43.2313C11.948 43.4224 12.2901 43.356 12.6809 42.9916C12.9852 42.7079 13.0577 42.5436 13.0577 42.1386C13.0577 41.5818 13.2287 41.7992 10.3866 38.7407C7.31175 35.4315 7.47652 35.6418 7.47652 35.0277C7.47652 34.5596 7.54034 34.4138 7.90445 34.0504C8.30096 33.6546 8.37412 33.6279 8.90009 33.687C9.46537 33.7507 9.49315 33.7763 15.3091 39.6041C18.7097 43.0114 21.2722 45.4864 21.4417 45.5269C21.8822 45.6324 22.2408 45.5279 22.572 45.1973C23.1779 44.5926 23.0604 44.0228 22.1236 43.0232C21.288 42.1316 21.1978 42.1156 23.8486 43.3288C25.9252 44.2791 26.4582 44.6903 26.9122 45.6917L27.1928 46.3102L27.2279 52.9411L27.2631 59.5719H21.9804H16.6977L16.6958 56.3322C16.6946 53.993 16.652 53.0083 16.543 52.7897C16.4378 52.5788 15.3822 51.9104 13.068 50.5893C11.24 49.5457 9.50747 48.4942 9.21798 48.2527C8.51875 47.6693 8.07407 46.9888 6.04894 43.4035C4.02417 39.8189 3.56688 38.8836 3.20652 37.5901C2.94312 36.6449 2.93559 36.4372 2.89458 29.096L2.8526 21.5708L3.17898 21.3146C3.53436 21.0355 4.18615 20.9773 4.58278 21.1891ZM59.821 21.3146L60.1474 21.5708L60.1054 29.096C60.0524 38.5909 60.2977 37.4786 56.9511 43.4035C54.9259 46.9888 54.4813 47.6693 53.782 48.2527C53.4925 48.4942 51.76 49.5457 49.932 50.5893C47.6178 51.9104 46.5622 52.5788 46.457 52.7897C46.348 53.0083 46.3054 53.993 46.3042 56.3322L46.3023 59.5719H41.0196H35.7369L35.7721 52.9411L35.8072 46.3102L36.0878 45.6917C36.5418 44.6903 37.0748 44.2791 39.1514 43.3288C41.8026 42.1155 41.7125 42.131 40.8688 43.0313C39.9358 44.0268 39.8226 44.5929 40.4343 45.2037C40.7596 45.5283 41.1199 45.6319 41.5583 45.5269C41.7278 45.4864 44.2903 43.0114 47.6909 39.6041C53.5068 33.7763 53.5346 33.7507 54.0999 33.687C54.6259 33.6279 54.699 33.6546 55.0955 34.0504C55.4597 34.4138 55.5235 34.5596 55.5235 35.0277C55.5235 35.6418 55.6883 35.4315 52.6134 38.7407C49.7713 41.7992 49.9423 41.5818 49.9423 42.1386C49.9423 42.5436 50.0148 42.7079 50.3191 42.9916C50.7099 43.356 51.052 43.4224 51.5552 43.2313C51.9703 43.0738 57.0862 37.5395 57.5206 36.7782L57.8797 36.1486L57.8436 29.2129C57.8055 21.9022 57.8242 21.6083 58.3504 21.2403C58.7284 20.9761 59.4353 21.0117 59.821 21.3146ZM13.8406 22.9252C14.0666 23.0196 14.3105 23.2067 14.3827 23.3413C14.4716 23.5071 14.5122 25.4865 14.5093 29.4979L14.505 35.4101L13.4217 34.2595L12.3385 33.109L12.3341 28.3473C12.3312 25.1647 12.3732 23.5048 12.4607 23.3416C12.5326 23.2073 12.7647 23.0223 12.9763 22.9305C13.4531 22.7234 13.3578 22.724 13.8406 22.9252ZM49.9971 22.9252C50.2231 23.0196 50.467 23.2067 50.5392 23.3413C50.6268 23.5046 50.6698 25.1655 50.6688 28.3473L50.6675 33.109L49.5826 34.2595L48.498 35.4101L48.4921 29.4979C48.4881 25.4897 48.5284 23.5071 48.6172 23.3416C48.6892 23.2073 48.9213 23.0223 49.1329 22.9305C49.6097 22.7234 49.5143 22.724 49.9971 22.9252ZM18.8909 30.2535L19.2456 30.6075V34.6089V38.6104L18.2446 38.1687C17.6941 37.9257 17.1755 37.6758 17.092 37.6135C16.8983 37.4685 16.8771 31.4035 17.0677 30.7181C17.2996 29.8847 18.273 29.6367 18.8909 30.2535ZM45.4534 30.0814C45.6914 30.2042 45.8466 30.4105 45.932 30.7172C46.1229 31.4033 46.1018 37.4684 45.908 37.6135C45.8247 37.6758 45.306 37.9257 44.7554 38.1687L43.7544 38.6104V34.6089V30.6075L44.1091 30.2535C44.5074 29.8559 44.9154 29.8036 45.4534 30.0814ZM13.9671 44.362C13.157 45.1706 13.7011 46.4383 14.8444 46.406C15.4454 46.3889 15.9697 45.8312 15.9697 45.2089C15.9697 44.2293 14.6564 43.6739 13.9671 44.362ZM47.385 44.4236C46.3675 45.4393 47.7786 47.0359 48.9332 46.1754C49.8619 45.4832 49.3965 44.0696 48.2399 44.0696C47.8488 44.0696 47.6622 44.1469 47.385 44.4236Z" fill="#0198AF"/>
</svg>
