<svg width="63" height="62" viewBox="0 0 63 62" fill="none" xmlns="http://www.w3.org/2000/svg">
<path fill-rule="evenodd" clip-rule="evenodd" d="M28.3894 0.16353C27.5811 0.35949 26.5039 1.00841 25.9623 1.62548C25.2507 2.4362 24.8818 3.39432 24.54 5.31941C24.3684 6.28528 24.2047 7.18454 24.1761 7.31776C24.1387 7.4918 23.8926 7.64065 23.3017 7.84654C22.8493 8.00422 21.9481 8.37301 21.299 8.66598L20.1186 9.19888L18.5599 8.10729C17.7025 7.50694 16.7003 6.88272 16.3328 6.72019C15.034 6.14563 13.5335 6.19505 12.1568 6.85753C11.1606 7.33702 7.84565 10.6523 7.36623 11.6487C6.70382 13.0255 6.65442 14.5262 7.2289 15.8252C7.39142 16.1928 8.01555 17.1951 8.61583 18.0526L9.70728 19.6115L9.17445 20.792C8.88152 21.4412 8.51278 22.3425 8.35511 22.795C8.14924 23.386 8.00041 23.6321 7.8264 23.6695C7.69319 23.6981 6.79404 23.8618 5.82829 24.0334C3.23668 24.4937 2.11241 25.1086 1.26195 26.5307C0.623398 27.5985 0.5 28.3213 0.5 30.9952C0.5 33.6692 0.623398 34.3919 1.26195 35.4598C2.11241 36.8819 3.23668 37.4968 5.82829 37.957C6.79404 38.1286 7.69319 38.2924 7.8264 38.321C8.00041 38.3584 8.14924 38.6045 8.35511 39.1955C8.51278 39.648 8.88152 40.5493 9.17445 41.1985L9.70728 42.3789L8.61583 43.9379C8.01555 44.7954 7.39142 45.7977 7.2289 46.1653C6.65442 47.4642 6.70382 48.9649 7.36623 50.3417C7.84565 51.3381 11.1606 54.6534 12.1568 55.1329C13.5335 55.7954 15.034 55.8448 16.3328 55.2703C16.7003 55.1077 17.7025 54.4835 18.5599 53.8832L20.1186 52.7916L21.299 53.3245C21.9481 53.6175 22.8493 53.9862 23.3017 54.1439C23.8926 54.3498 24.1387 54.4987 24.1761 54.6727C24.2047 54.8059 24.3684 55.7052 24.54 56.6711C25.0002 59.263 25.615 60.3874 27.0369 61.238C28.1047 61.8766 28.8274 62 31.501 62C34.1745 62 34.8973 61.8766 35.965 61.238C36.7741 60.7539 37.3622 60.0916 37.8083 59.1621C38.4591 57.806 38.3635 56.8174 37.5328 56.3109C36.5789 55.7292 35.6218 56.1566 35.1581 57.3712C34.9538 57.9062 34.7408 58.2272 34.4354 58.4601L34.0023 58.7905H31.5104C29.0951 58.7905 29.0063 58.7818 28.6231 58.5084C28.4056 58.3533 28.1503 58.0768 28.0557 57.8938C27.9612 57.7109 27.6853 56.4481 27.4429 55.0875C26.8784 51.9208 26.9543 52.0312 24.8768 51.3501C24.0243 51.0706 22.6817 50.5184 21.8931 50.1231C20.9048 49.6276 20.3181 49.4043 20.0047 49.4043C19.5019 49.4043 19.0629 49.6616 16.7271 51.3253C14.3229 53.0377 14.1224 53.0119 11.8047 50.6939C9.48701 48.3759 9.46121 48.1754 11.1734 45.7709C12.8369 43.4348 13.0941 42.9958 13.0941 42.4929C13.0941 42.18 12.8706 41.591 12.3772 40.6043C11.9829 39.8156 11.4243 38.4682 11.136 37.61C10.4377 35.5322 10.5396 35.6036 7.49968 35.0635C4.79266 34.5827 4.40333 34.4517 3.9996 33.8853C3.71562 33.4872 3.70908 33.4216 3.70908 30.9952C3.70908 28.5895 3.7178 28.5002 3.99112 28.117C4.14625 27.8995 4.42416 27.6434 4.60872 27.548C4.79327 27.4526 6.05341 27.1789 7.4091 26.9398C10.5522 26.3855 10.4352 26.4659 11.136 24.3804C11.4243 23.5222 11.9829 22.1749 12.3772 21.3862C12.8706 20.3995 13.0941 19.8105 13.0941 19.4975C13.0941 18.9947 12.8369 18.5557 11.1734 16.2195C9.46121 13.8151 9.48701 13.6145 11.8047 11.2965C14.1224 8.97857 14.3229 8.95278 16.7271 10.6652C19.0629 12.3289 19.5019 12.5861 20.0047 12.5861C20.318 12.5861 20.9053 12.3628 21.8931 11.8678C22.6817 11.4728 24.0057 10.9259 24.8355 10.6527C26.2961 10.1718 26.6816 9.96503 26.9082 9.5415C26.9674 9.43093 27.2047 8.27746 27.4353 6.9784C27.9139 4.28402 28.0453 3.89403 28.6112 3.49049C29.0093 3.20648 29.0749 3.19994 31.501 3.19994C33.9064 3.19994 33.9957 3.20866 34.3788 3.48201C34.5963 3.63715 34.8516 3.91365 34.9462 4.09665C35.0408 4.27953 35.3166 5.54237 35.559 6.90295C36.1235 10.0697 36.0476 9.95922 38.1251 10.6404C38.9776 10.9199 40.3202 11.472 41.1088 11.8673C42.0971 12.3628 42.6838 12.5861 42.9972 12.5861C43.5 12.5861 43.939 12.3289 46.2748 10.6652C48.679 8.95278 48.8795 8.97857 51.1972 11.2965C53.5149 13.6145 53.5407 13.8151 51.8285 16.2195C50.165 18.5557 49.9078 18.9947 49.9078 19.4975C49.9078 19.8109 50.1311 20.3983 50.626 21.3862C51.021 22.1749 51.5678 23.4991 51.841 24.329C52.3218 25.7897 52.5286 26.1753 52.952 26.4019C53.0626 26.4611 54.2159 26.6984 55.5148 26.9291C58.2089 27.4078 58.5988 27.5392 59.0023 28.1051C59.2863 28.5033 59.2928 28.5683 59.2928 31.0047V33.4969L58.9625 33.93C58.7296 34.2355 58.4086 34.4485 57.8737 34.6528C56.6592 35.1166 56.2318 36.0738 56.8135 37.0278C57.3199 37.8587 58.3084 37.9542 59.6643 37.3034C60.603 36.8528 61.2558 36.2686 61.7616 35.4265C62.3797 34.3975 62.4979 33.6879 62.5 30.9904C62.5022 28.3212 62.3791 27.5996 61.74 26.5307C60.8704 25.0766 59.789 24.5011 56.9452 23.9791C55.8538 23.7786 54.9501 23.5995 54.9371 23.5807C54.924 23.5621 54.7879 23.1926 54.6346 22.7596C54.4813 22.3266 54.1171 21.4412 53.8253 20.792L53.2946 19.6115L54.3861 18.0526C54.9864 17.1951 55.6105 16.1928 55.773 15.8252C56.3475 14.5262 56.2981 13.0255 55.6357 11.6487C55.1563 10.6523 51.8413 7.33702 50.8451 6.85753C49.4684 6.19505 47.9679 6.14563 46.6691 6.72019C46.3016 6.88272 45.2994 7.50694 44.442 8.10729L42.8833 9.19888L41.7029 8.66598C41.0538 8.37301 40.1526 8.00422 39.7002 7.84654C39.1093 7.64065 38.8632 7.4918 38.8258 7.31776C38.7972 7.18454 38.6335 6.28528 38.4619 5.31941C38.0017 2.72748 37.3869 1.60307 35.965 0.7525C34.8842 0.106002 34.1814 -0.0108715 31.4452 0.000755314C29.9439 0.00717427 28.7786 0.0691838 28.3894 0.16353ZM29.4124 15.7452C28.0843 16.0584 27.1395 17.3141 27.1427 18.762C27.1448 19.7926 27.5276 20.3343 30.1505 23.0197C31.5938 24.4977 32.6668 25.6974 32.7736 25.9528C33.015 26.531 32.9972 27.1965 32.7246 27.7858C32.4909 28.2907 29.0319 31.7918 28.4764 32.0856C27.9668 32.3551 27.4172 32.4262 26.8128 32.3009C26.2718 32.1888 26.0559 32.0047 23.5691 29.5352C20.6976 26.6838 20.3028 26.3995 19.2096 26.3968C18.4686 26.395 17.5497 26.8038 17.0057 27.3774C16.3882 28.0282 16.2214 28.5838 16.1557 30.2075C15.8674 37.3442 20.8665 43.7535 27.9802 45.3676C28.4442 45.4729 29.8621 45.5875 31.3799 45.6423C33.7776 45.729 34.0491 45.7617 34.8133 46.0558C35.2697 46.2314 35.9406 46.586 36.304 46.844C36.6676 47.1018 39.3093 49.7318 42.1745 52.6884C45.0397 55.6449 47.5023 58.1301 47.6468 58.211C48.0125 58.4156 48.7617 58.4019 49.1852 58.1829C49.3805 58.0819 49.6294 57.8272 49.7381 57.6168C49.9477 57.2115 49.9911 56.4351 49.8211 56.1313C49.765 56.0311 48.3087 54.4902 46.5849 52.707C38.7934 44.6475 38.0666 43.9784 36.3441 43.2785C34.9238 42.7011 34.3256 42.603 31.6221 42.5039C29.5306 42.4274 28.8286 42.3564 28.0533 42.1433C23.942 41.0134 20.686 37.7041 19.6313 33.5838C19.3849 32.6212 19.1557 29.7841 19.3242 29.7841C19.3744 29.7841 20.3227 30.7199 21.4317 31.8637C22.5406 33.0075 23.7612 34.1748 24.1442 34.4577C25.7864 35.6711 28.0357 35.8356 29.9099 34.8794C30.4543 34.6016 33.7696 31.5456 34.6641 30.4967C36.3343 28.5387 36.5588 25.9897 35.2441 23.9102C35.0336 23.5771 33.8872 22.3204 32.6967 21.1177C31.5063 19.9149 30.5322 18.8847 30.5322 18.8284C30.5322 18.6584 32.9442 18.8656 34.0387 19.1296C35.2614 19.4246 37.0541 20.25 38.0828 20.9915C39.0387 21.6805 40.4172 23.098 41.0555 24.0482C41.8149 25.1787 42.2608 26.229 42.8221 28.2096C42.8692 28.3762 42.9508 29.8204 43.0034 31.4191C43.0825 33.8225 43.1425 34.4698 43.3503 35.1575C43.663 36.1919 44.2945 37.448 44.9241 38.2875C45.5223 39.0852 55.765 49.6557 56.1243 49.8461C57.365 50.5037 58.7591 49.406 58.3825 48.0682C58.293 47.7504 56.9621 46.3066 52.915 42.1376C49.9728 39.1067 47.3923 36.3545 47.1805 36.0214C46.3373 34.6957 46.2434 34.2504 46.1453 31.1163C46.052 28.1373 45.9522 27.4476 45.365 25.7179C43.8613 21.2884 39.9814 17.5656 35.5222 16.2732C33.4707 15.6786 30.7078 15.4399 29.4124 15.7452Z" fill="#0198AF"/>
</svg>
