<svg width="62" height="62" viewBox="0 0 62 62" fill="none" xmlns="http://www.w3.org/2000/svg">
<path fill-rule="evenodd" clip-rule="evenodd" d="M29.1197 0.224706C28.5571 0.372086 23.8142 2.78211 15.0504 7.37375C2.75392 13.8163 1.78591 14.3496 1.20149 15.0025C0.3285 15.9779 0.00170525 16.9174 6.35635e-06 18.4562C-0.00144984 19.8433 0.247074 20.6544 0.975658 21.6408C1.45693 22.2922 2.25007 22.8332 4.15138 23.8065L5.27386 24.3811V33.0887V41.7961L4.92365 41.9736C3.5365 42.6764 2.9306 44.9438 3.65482 46.7212C3.91014 47.348 3.94836 47.5628 3.83818 47.7523C3.50374 48.3268 3.23434 49.074 3.16323 49.6242C3.121 49.9507 2.92308 52.4115 2.72334 55.0925C2.36341 59.924 2.36232 59.9728 2.58827 60.5977C2.71363 60.9445 3.00062 61.389 3.22597 61.5855C3.61865 61.9281 3.73127 61.9449 5.94129 61.9909C7.36411 62.0204 8.41682 61.9771 8.69071 61.8776C9.23739 61.6793 9.84693 60.8587 9.9508 60.1815C10.0373 59.6175 9.33981 49.8842 9.15705 49.1048C9.09322 48.8324 8.90768 48.3632 8.74483 48.0622L8.44874 47.515L8.76243 46.7396C9.52571 44.8534 8.97624 42.9935 7.29082 41.758C7.10503 41.6219 7.09108 40.9399 7.12154 33.4947L7.15478 25.3799L9.64245 26.6825L12.1301 27.985L12.2028 33.0905C12.2833 38.7516 12.307 38.9517 13.1179 40.8008C14.6759 44.3537 18.658 47.3922 23.6934 48.8706C26.2625 49.6249 27.4225 49.7672 31 49.7672C33.6146 49.7672 34.6316 49.7098 35.6976 49.5022C38.7414 48.9092 41.0262 48.0598 43.3447 46.6591C45.9861 45.0633 47.9015 43.0369 48.8821 40.8008C49.693 38.9517 49.7167 38.7516 49.7972 33.0915L49.8699 27.9869L54.7239 25.4372C60.4548 22.4268 60.4347 22.439 61.0257 21.639C61.7529 20.6544 62.0014 19.8427 62 18.4562C61.9983 16.9174 61.6715 15.9779 60.7985 15.0025C60.2141 14.3494 59.2468 13.8168 46.9503 7.37494C37.1069 2.21812 33.4914 0.389154 32.795 0.213723C31.6487 -0.0751001 30.2478 -0.0709448 29.1197 0.224706ZM32.3909 2.42843C32.9529 2.57403 37.4229 4.84024 45.7394 9.19604C52.6164 12.7977 58.5336 15.9172 58.889 16.1279C59.9159 16.7374 60.3705 17.8262 60.1089 19.0499C59.8395 20.3102 60.2217 20.0797 46.3621 27.3423C39.2811 31.0528 33.1724 34.1999 32.787 34.3357C31.8044 34.6822 30.0643 34.6586 29.087 34.2858C27.9505 33.8521 9.15087 23.9683 9.25195 23.8576C9.29988 23.8051 13.2175 22.9413 17.9579 21.9381L26.5769 20.114L27.1552 20.6538C28.7163 22.1115 32.2498 22.3823 34.1692 21.1916C35.5564 20.331 36.2258 18.6416 35.6823 17.3727C35.0346 15.8608 33.28 14.9523 31 14.9485C29.617 14.9461 28.7039 15.177 27.7442 15.7719C27.1208 16.1582 26.2674 17.1977 26.2674 17.5707C26.2674 17.6955 26.1992 17.8293 26.1157 17.8679C26.0323 17.9066 21.4379 18.9007 15.906 20.0772L5.84821 22.2162L4.32212 21.4112C2.61449 20.5105 2.08431 19.9998 1.89306 19.0711C1.63471 17.8158 2.07994 16.7399 3.11105 16.1279C5.29158 14.834 28.9023 2.60728 29.5547 2.43422C30.5777 2.16291 31.36 2.16128 32.3909 2.42843ZM32.7165 17.4918C33.6248 17.8416 34.0763 18.2221 33.9732 18.5509C33.8812 18.8439 33.0446 19.3577 32.3348 19.557C31.1467 19.891 29.6025 19.6985 28.6092 19.0928C27.9743 18.7055 27.8654 18.4048 28.2333 18.0541C29.1038 17.2245 31.3056 16.9483 32.7165 17.4918ZM21.2313 32.751C24.9689 34.7104 28.3819 36.4324 28.8157 36.5777C29.359 36.7595 30.0388 36.8417 31 36.8417C31.9612 36.8417 32.641 36.7595 33.1843 36.5777C33.6181 36.4324 37.0311 34.7104 40.7687 32.751C44.5062 30.7914 47.6366 29.1522 47.7249 29.1081C47.855 29.0432 47.8782 29.4484 47.8463 31.2373C47.8097 33.2927 47.7834 33.5081 47.4678 34.3323C46.7346 36.2475 45.5798 37.6417 43.4207 39.2187C42.763 39.6989 42.1847 40.1663 42.1357 40.2571C41.9585 40.5852 42.0427 41.3868 42.2855 41.6838C42.7511 42.2532 43.3018 42.0358 45.1915 40.5363C45.7552 40.089 46.5607 39.3187 46.9814 38.8246C47.8977 37.7483 47.9828 37.9488 47.3089 39.5962C45.798 43.2902 40.9139 46.3367 34.8832 47.3467C33.3776 47.5988 28.6224 47.5988 27.1168 47.3467C21.0861 46.3367 16.202 43.2902 14.6911 39.5962C14.0414 38.008 14.1091 37.7879 14.9414 38.782C18.4766 43.0033 25.7633 45.4873 32.9964 44.9369C34.1342 44.8504 35.2005 44.7007 35.3658 44.6042C35.7268 44.3934 35.9194 43.8035 35.8064 43.2533C35.6815 42.6448 35.1438 42.4425 34.0337 42.5864C32.7046 42.7586 29.2784 42.747 27.8274 42.5654C21.5115 41.7743 16.2772 38.617 14.6622 34.6241L14.1931 33.464L14.1538 31.246C14.1218 29.45 14.145 29.0432 14.2751 29.1081C14.3634 29.1522 17.4938 30.7914 21.2313 32.751ZM38.489 41.6067C37.3614 42.0097 37.0675 42.2911 37.0675 42.9683C37.0675 43.5785 37.4285 44.0585 37.8874 44.0585C38.5283 44.0585 40.3955 43.34 40.617 43.0079C41.1129 42.265 40.6582 41.2241 39.8508 41.2538C39.6214 41.2622 39.0086 41.4211 38.489 41.6067ZM6.9639 44.3011C7.64661 45.3625 6.77557 46.8329 5.80295 46.261C4.7722 45.655 5.09354 43.91 6.2358 43.91C6.60616 43.91 6.76853 43.9972 6.9639 44.3011ZM6.94788 49.0483C7.10103 49.1696 7.27298 49.4188 7.32989 49.6021C7.38693 49.7855 7.57526 51.8692 7.74843 54.2324C7.92171 56.5957 8.0944 58.8132 8.13226 59.1601L8.20118 59.7909H6.25206H4.30307L4.30792 59.2343C4.32224 57.6009 5.00665 49.7382 5.1621 49.421C5.51523 48.7007 6.30133 48.5367 6.94788 49.0483Z" fill="#0198AF"/>
</svg>
