<svg width="58" height="71" viewBox="0 0 58 71" fill="none" xmlns="http://www.w3.org/2000/svg">
<g opacity="0.8">
<path d="M28.7947 65.4294C28.7947 64.405 28.5257 63.4421 28.0528 62.6019L28.0518 62.6C27.4704 61.5888 26.3575 60.9363 25.079 60.9344H23.0174V69.9226H25.079C26.3817 69.9207 27.5132 69.2419 28.0844 68.1973V68.1992C28.5387 67.3719 28.7947 66.4294 28.7947 65.4294ZM29.8278 63.8102C29.9446 64.3308 30.0076 64.8716 30.0076 65.4275C30.0076 65.9759 29.9465 66.5094 29.8314 67.0262C29.8221 67.0707 29.8129 67.1116 29.8017 67.1506C29.3177 69.2512 27.3852 70.8223 25.0743 70.8223H21.9408V60.0293H25.0743C27.3757 60.0293 29.3029 61.5907 29.7963 63.6784C29.8074 63.721 29.8183 63.7638 29.8278 63.8102ZM12.3596 60.0291H11.2821V70.822H20.5572V69.9243H12.3596V60.0291ZM3.8252 66.3271H8.83585C8.80879 67.1432 8.60865 67.7531 8.26632 68.3441C8.26442 68.346 8.26181 68.3515 8.25896 68.3553C7.6785 69.4263 6.47297 70.1047 5.1727 70.1047C3.86698 70.1047 2.7329 69.3701 2.1598 68.2901H2.15886C1.70613 67.4371 1.44854 66.463 1.44854 65.4294C1.44854 64.3717 1.71823 63.3752 2.19114 62.5091L2.19209 62.5053C2.77539 61.4589 3.89119 60.7505 5.1727 60.7505C5.72087 60.7505 6.23817 60.8807 6.69731 61.1112C7.69512 61.5683 8.56497 62.3975 8.91823 63.2415C8.92298 63.2508 8.92677 63.262 8.93224 63.2748L9.8206 62.5108C9.81775 62.5072 9.81609 62.5015 9.81324 62.496C8.67346 60.7022 7.13509 59.8544 5.1708 59.8544C2.86822 59.8544 0.941209 61.4624 0.447883 63.6205C0.436725 63.6634 0.426517 63.7081 0.417258 63.7564C0.299505 64.2937 0.237305 64.8531 0.237305 65.4275C0.237305 65.9945 0.298556 66.5465 0.41346 67.0783C0.421769 67.1247 0.431976 67.1675 0.442184 67.2084C0.926252 69.3777 2.85991 71.0007 5.1708 71.0007C7.52823 71.0007 9.50533 69.4077 9.96162 67.1768C10.0711 66.6433 10.1043 65.9926 10.1043 65.4275V65.3363H3.8252V66.3271ZM18.5744 65.3363L17.0581 61.4179L15.542 65.3363H18.5744ZM17.597 60.0293L20.5572 67.675H19.3906L18.888 66.2362H15.2284L14.7249 67.675H13.5588L16.5194 60.0293H17.597ZM45.0967 65.3363H48.1291L46.613 61.4179L45.0967 65.3363ZM43.1139 67.675L46.0741 60.0293H47.1517L50.1119 67.675H48.9463L48.4427 66.2362H44.7834L44.2805 67.675H43.1139ZM42.802 60.0293L39.3031 69.4337L37.4302 64.4L39.1009 60.0293H37.9352L36.8697 62.8934L35.804 60.0293H34.6369L36.309 64.401L34.4363 69.4337L30.9372 60.0293H29.7702L33.8974 70.8223H34.975L36.8697 65.8669L38.7642 70.8223H39.8418L43.9676 60.0293H42.802ZM57.508 60.0293C57.508 60.0293 55.4326 63.735 53.3202 66.8684C53.3202 66.8684 52.1823 68.4783 51.7436 68.908C50.1762 70.4442 48.504 70.9153 47.0427 70.9153C44.7485 70.9153 42.9748 69.7546 42.9461 69.7354L43.5439 68.8376C43.7079 68.9466 47.5954 71.4647 50.9905 68.1366C51.443 67.6936 52.1211 66.7307 52.6932 65.8662L49.0441 60.0293H50.3906L53.3534 64.7615C54.6874 62.8882 55.7066 61.1093 56.2873 60.0293H57.508Z" fill="#231F20"/>
<path d="M50.4217 10.8123C50.4138 10.8021 50.0841 10.3659 49.92 10.1591C49.7567 9.95427 49.4063 9.53478 49.3982 9.52598C44.6247 3.89703 37.5886 0.254166 29.6966 0.0167007C29.6845 0.0167007 29.1394 0.00242615 28.8761 0.00242615C28.6145 0.00242615 28.0675 0.0167007 28.0549 0.0167007C20.1636 0.253689 13.1265 3.89703 8.35473 9.52526C8.3469 9.53478 7.99649 9.95427 7.83244 10.1591C7.66816 10.3659 7.33841 10.8021 7.33057 10.8123C2.91677 16.7282 0.939673 24.4141 2.46475 32.1772C2.46736 32.1888 2.57681 32.7261 2.63449 32.9816C2.69313 33.2384 2.82774 33.7692 2.83107 33.7811C4.69397 40.9284 9.45652 47.2699 16.464 50.9152C16.4751 50.9199 16.9604 51.1703 17.1973 51.2838C17.4342 51.3975 17.9313 51.6238 17.9423 51.6288C25.1551 54.8471 33.072 54.6244 39.809 51.6288C39.8211 51.6238 40.3171 51.3975 40.5535 51.2838C40.7904 51.1703 41.2757 50.9199 41.2873 50.9135C47.8249 47.5036 52.9346 41.4383 54.9212 33.7811C54.9243 33.7692 55.0589 33.2384 55.1168 32.9816C55.1754 32.7261 55.2842 32.1888 55.2865 32.1772C56.7015 24.9274 55.1564 17.1427 50.4217 10.8123Z" fill="#CF181F"/>
<path d="M47.7083 22.6692L50.4208 10.8107C50.413 10.8002 50.0832 10.3641 49.9192 10.1576C49.7559 9.95269 49.4052 9.53296 49.3974 9.52439L37.2566 9.53463L29.6957 0.0151138C29.6836 0.0151138 29.1383 0.000839233 28.8753 0.000839233C28.6134 0.000839233 28.0667 0.0151138 28.0541 0.0151138L20.493 9.53391L8.35362 9.52344C8.34578 9.53296 7.99561 9.95269 7.83133 10.1576C7.66728 10.3641 7.33753 10.8002 7.32969 10.8107L10.0423 22.6701L2.46387 32.1753C2.46648 32.1872 2.57592 32.7245 2.63361 32.9801C2.69225 33.2368 2.82686 33.7676 2.83018 33.7793L13.7728 39.0485L16.4631 50.9134C16.4742 50.9184 16.9595 51.1684 17.1964 51.2822C17.4334 51.3957 17.9302 51.6222 17.9414 51.627L28.8753 46.338L39.8082 51.627C39.82 51.6222 40.3162 51.3957 40.5524 51.2822C40.7894 51.1684 41.2746 50.9184 41.2865 50.9117L43.977 39.0485L54.9203 33.7793C54.9234 33.7676 55.058 33.2368 55.116 32.9801C55.1746 32.7245 55.2833 32.1872 55.2857 32.1753L47.7083 22.6692Z" fill="#DC4F3F"/>
<path d="M53.9532 33.2071L40.2386 36.0607L40.5131 50.0977L39.6522 50.5125L28.8753 41.5459L18.097 50.5125L17.2368 50.0977L17.5113 36.0607L3.79743 33.2071L3.58496 32.2727L14.7052 23.7366L8.38075 11.2107L8.97616 10.4621L22.5687 13.854L28.3979 1.08896H29.3525L35.1812 13.854L48.7745 10.4621L49.3696 11.2107L43.045 23.7366L54.1664 32.2727L53.9532 33.2071Z" fill="#E67A64"/>
<path d="M38.3244 24.8189L48.3941 11.7257L48.0579 11.3046L33.0815 18.2277L29.1456 2.17577H28.6064L24.67 18.2277L9.69436 11.3046L9.35819 11.7257L19.427 24.8189L4.6875 32.2362L4.80644 32.7623L21.298 33.0364L17.8948 49.2115L18.38 49.4449L28.8761 36.6949L39.3715 49.4449L39.8566 49.2115L36.4536 33.0364L52.9458 32.7623L53.0655 32.2362L38.3244 24.8189Z" fill="#F0AB97"/>
<path d="M51.9261 32.3713L51.9546 32.2609L51.9753 32.1545L33.6004 25.9003L47.4489 12.2794L47.3829 12.189L47.3103 12.1048L30.9781 22.6046L28.9836 3.25956L28.8742 3.25719L28.7617 3.25956L26.7736 22.6062L10.4345 12.1048L10.3678 12.189L10.2959 12.2794L24.1513 25.9003L5.77002 32.1545L5.79708 32.2609L5.81916 32.3723L25.0866 30.0093L18.5011 48.3111L18.6041 48.3575L18.7007 48.4068L28.8759 31.8383L39.0422 48.4068L39.1445 48.3542L39.2428 48.3095L32.6641 30.0093L51.9261 32.3713Z" fill="white"/>
</g>
</svg>
