<svg width="120" height="72" viewBox="0 0 120 72" fill="none" xmlns="http://www.w3.org/2000/svg">
<g opacity="0.8">
<path d="M119.935 13.2345C119.95 6.31746 114.435 0.698002 107.616 0.684414C101.445 0.671394 96.3224 5.25426 95.394 11.2536C101.058 12.4017 105.321 17.4788 105.307 23.5597C105.304 25.2796 104.535 27.5249 103.383 29.9275C105.667 33.2072 107.542 35.5634 107.542 35.5634C107.542 35.5634 119.921 20.1521 119.935 13.2345Z" fill="#E76294"/>
<path d="M95.3937 11.254C94.6155 11.0966 93.8114 11.0111 92.9877 11.0094C92.1336 11.0077 91.2996 11.0938 90.4938 11.2597C90.568 11.819 90.6088 12.3885 90.6076 12.9683C90.5984 17.1831 86.0022 24.5463 82.4102 29.6602C85.8216 36.9792 92.9141 45.8884 92.9141 45.8884C92.9141 45.8884 99.902 37.1886 103.383 29.928C99.8105 24.7976 95.235 17.4034 95.243 13.1845C95.2448 12.5278 95.2965 11.883 95.3937 11.254Z" fill="#0098AF"/>
<path d="M95.3944 11.2512C95.2972 11.8802 95.2454 12.525 95.2437 13.1817C95.2356 17.4006 99.8112 24.7949 103.384 29.9252C104.536 27.5225 105.304 25.2772 105.308 23.5573C105.321 17.4759 101.058 12.3993 95.3944 11.2512Z" fill="#AB396F"/>
<path d="M90.4945 11.2591C89.6858 5.14884 84.5362 0.430103 78.2886 0.416515C71.4704 0.402363 65.9314 5.99917 65.917 12.9168C65.9021 19.8338 78.2155 35.2961 78.2155 35.2961C78.2155 35.2961 80.1067 32.9393 82.4103 29.6596C81.3278 27.3379 80.6123 25.1742 80.6158 23.5086C80.629 17.4572 84.8687 12.4174 90.4945 11.2591Z" fill="#FFDD00"/>
<path d="M90.4945 11.2587C84.8686 12.417 80.629 17.4568 80.6157 23.5082C80.6123 25.1738 81.3278 27.3375 82.4103 29.6592C86.0023 24.5453 90.5992 17.1816 90.6078 12.9673C90.609 12.3876 90.5687 11.8175 90.4945 11.2587Z" fill="#94BA21"/>
<path d="M32.602 57.6915C32.602 54.1441 33.6437 52.9631 35.5723 52.9631C37.4991 52.9631 38.6673 54.2703 38.6673 57.8154C38.6673 61.3306 37.6257 62.6672 35.6338 62.6672C33.7714 62.6672 32.602 61.2055 32.602 57.6915ZM28.0512 57.8771C28.0512 63.2888 30.4215 65.8398 35.413 65.8398C40.4377 65.8398 43.2182 62.7289 43.2182 57.5663C43.2182 52.1241 40.8174 49.791 35.7926 49.791C30.8 49.791 28.0512 52.6823 28.0512 57.8771ZM39.4927 33.3901L39.4939 31.0831L32.4864 31.082L32.4726 33.376C32.7798 33.766 33.0662 34.1391 33.7656 34.4086L32.1517 38.8477C31.5437 40.4962 31.2975 41.9942 31.2975 41.9942H30.8719L30.8621 42.0163H30.7482C30.7482 42.0163 30.1259 39.7212 29.5173 38.0715L29.0175 36.7648L28.1093 34.2671C28.6569 34.0281 28.8116 33.7275 29.086 33.3969L29.1015 31.082H21.1818L21.1928 31.0927L20.4502 31.0939L21.2905 33.4094C21.6569 33.89 23.134 34.3101 23.9864 34.5796L28.7892 46.2861H32.6176L32.6124 46.2657H32.7412L37.483 34.5597C38.336 34.2903 39.128 33.8708 39.4927 33.3901ZM50.225 38.5499C50.225 41.9393 49.2196 43.2284 47.2996 43.2284C45.5034 43.2284 44.3766 41.8193 44.3766 38.431C44.3766 35.0121 45.3797 33.8736 47.2387 33.8736C49.0971 33.8736 50.225 35.1327 50.225 38.5499ZM54.6108 38.3115C54.6108 33.064 52.2962 30.8136 47.4521 30.8136C42.6395 30.8136 39.9885 33.6035 39.9885 38.6116C39.9885 43.8279 42.272 46.2861 47.0874 46.2861C51.9304 46.2861 54.6108 43.289 54.6108 38.3115ZM56.5296 50.5032C56.2529 50.3815 55.2297 50.3515 54.8305 50.3515C53.2971 50.3515 51.7326 51.1668 50.8123 52.2237V50.3204C49.0948 50.1704 47.1311 50.2609 45.5356 50.6238L45.229 52.9489C45.6276 53.3701 46.2097 53.7342 46.9166 53.9753V62.37C46.1803 62.6406 45.5356 63.0046 45.229 63.3958L45.5356 65.7204H54.3094L54.6159 63.3958C54.0028 62.8518 52.5602 62.37 51.2114 62.1277V55.2135C51.8246 54.61 53.1751 54.3365 54.4319 54.3365C54.9231 54.3365 55.3832 54.3688 55.7824 54.4283L56.5296 50.5032ZM67.5316 61.1302C66.7943 61.6442 65.6611 61.976 64.5867 61.976C62.9302 61.976 62.0099 61.0707 62.0099 57.9004C62.0099 55.0323 62.8077 53.4607 65.0158 53.4607C65.7532 53.4607 66.6729 53.6125 67.5316 53.9753V61.1302ZM71.8271 53.9142C72.4966 53.6566 72.8768 53.4839 73.2023 53.1046V50.6238H71.8271H69.3118H69.3084H69.3009L69.3032 50.625C68.9356 50.6289 68.5422 50.8978 68.391 51.1668C67.4695 50.7144 66.3036 50.3815 64.9542 50.3815C61.3651 50.3815 57.7766 51.8014 57.7766 58.0815C57.7766 63.4864 60.1383 65.268 63.7579 65.268C65.2309 65.268 66.5809 64.9352 67.5316 64.3622V65.6904C67.5316 67.5337 66.6597 68.7673 64.6782 68.9768C63.579 69.0929 62.8986 69.0153 62.0594 68.6416C62.0594 68.6416 62.164 67.1731 61.391 66.9908H57.3831C57.3831 70.5744 59.3641 72.0209 64.9859 72.0005C69.6489 71.9852 71.8271 69.9188 71.8271 65.4792V53.9142ZM79.2216 56.6322C79.4977 54.2471 80.5986 53.4596 82.3218 53.4607C83.9479 53.463 84.6139 53.9329 84.8544 56.3843L79.2216 56.6322ZM79.19 59.1391H85.846C87.3495 59.1391 88.0242 58.3538 88.0242 56.9651C88.0242 51.6808 85.571 50.3815 82.1648 50.3815C78.5768 50.3815 74.7415 52.2237 74.7415 58.4133C74.7415 63.2752 77.1958 65.9621 82.1343 65.9621C86.1842 65.9621 88.3906 63.8119 88.3906 63.8119L86.7674 61.6442C86.7674 61.6442 85.2944 62.6106 82.9637 62.6106C80.4485 62.6106 79.374 61.6742 79.19 59.1391Z" fill="#1B181C"/>
<path d="M107.665 63.4131C107.327 63.0208 106.683 62.659 105.978 62.3873V56.5883C105.978 52.0593 104.567 50.3988 100.547 50.3988C99.014 50.3988 97.1119 51.0034 96.0696 51.8481V50.4022H89.5327L90.4864 52.9662C90.885 53.3885 91.4682 53.7503 92.1722 53.9909V62.3873C91.4366 62.659 90.7929 63.0208 90.4864 63.4131L90.7929 65.7365H97.702L98.0086 63.4131C97.6704 63.0208 97.174 62.659 96.4682 62.3873V54.6261C97.2045 54.1115 98.1869 53.6592 99.3815 53.6592C100.886 53.6592 101.683 54.1115 101.683 56.4072V62.3873C100.947 62.659 100.302 63.0208 99.9958 63.4131L100.302 65.7365H107.359L107.665 63.4131Z" fill="#1B181C"/>
<path d="M73.4901 43.9166C73.1576 43.5282 72.5226 43.1727 71.826 42.9038V37.1875C71.826 32.7224 70.4347 31.0846 66.4722 31.0846C64.9601 31.0846 63.0838 31.6813 62.056 32.5135L62.0278 31.0834H55.6128L56.5509 33.6163C56.9438 34.033 57.5189 34.3891 58.2143 34.628V42.9038C57.489 43.1727 56.8529 43.5282 56.5509 43.9166L56.8529 46.2089H63.6659L63.9667 43.9166C63.6354 43.5282 63.146 43.1727 62.4506 42.9038V35.2536C63.1759 34.7475 64.1433 34.3008 65.323 34.3008C66.8036 34.3008 67.591 34.7475 67.591 37.0103V42.9038C66.8651 43.1727 66.2295 43.5282 65.9287 43.9166L66.2295 46.2089H73.1869L73.4901 43.9166Z" fill="#1B181C"/>
<path d="M19.3923 50.4565C17.9687 50.4565 16.3611 51.1772 15.3091 52.1713C14.4739 50.9377 13.0204 50.4565 10.607 50.4565C9.37033 50.4565 7.85415 51.1189 6.89475 51.8996L6.87749 50.3739H0.885254L1.5749 53.0132C1.9781 53.4333 2.56478 53.7945 3.27571 54.0345L3.28376 62.3765C2.5412 62.646 1.89412 63.1459 1.5841 63.5371L1.88434 65.7365H8.53459L8.85381 63.5371C8.51331 63.1459 7.96056 62.6482 7.24963 62.3788L7.24273 54.668C7.89096 54.1585 8.90616 53.7039 9.89604 53.7039C11.4116 53.7039 12.3406 54.1562 12.3406 56.4417L12.3463 62.3765C11.6038 62.646 10.9567 63.1459 10.6478 63.5371L10.9469 65.7365H17.443L17.7622 63.5371C17.4217 63.1459 17.0116 62.6364 16.2995 62.3652L16.2921 57.5145C16.2921 56.4321 16.2621 55.4997 16.1379 54.6884C16.85 54.1155 17.722 53.7039 18.6802 53.7039C20.1964 53.7039 20.9942 54.1941 20.9942 56.4796L21.0011 62.4127C20.2585 62.6839 19.7414 63.1459 19.4325 63.5371L19.7328 65.7365H26.3002L26.6183 63.5614C26.2778 63.1714 25.625 62.6715 24.9152 62.4008L24.9071 57.5496C24.9071 52.1663 23.9702 50.4565 19.3923 50.4565Z" fill="#1B181C"/>
</g>
</svg>
