<svg width="209" height="72" viewBox="0 0 209 72" fill="none" xmlns="http://www.w3.org/2000/svg">
<g opacity="0.8">
<path d="M98.5964 62.4341H0.768066V71.5864H98.5964V62.4341Z" fill="white"/>
<path d="M64.7081 9.20537H34.6258V53.2631H25.3555V0.000732422H73.9851V53.2631H64.7148L64.7081 9.20537Z" fill="white"/>
<path d="M111.008 10.7191H103.582V22.5694H101.205V8.29187H113.421V22.5694H111.008V10.7191Z" fill="white"/>
<path d="M117.864 8.58768H120.331V10.1868C120.931 9.57673 121.647 9.09422 122.438 8.76847C123.23 8.44286 124.079 8.28082 124.935 8.29246C128.772 8.29246 131.18 11.134 131.18 15.1197C131.235 16.0663 131.091 17.0137 130.761 17.9027C130.429 18.7916 129.917 19.6025 129.257 20.2844C128.596 20.9663 127.8 21.5043 126.921 21.8645C126.041 22.2248 125.096 22.3995 124.145 22.3774C122.812 22.4243 121.492 22.1007 120.331 21.4426V28.0607H117.864V8.58768ZM120.331 12.401V19.0807C121.389 19.8062 122.653 20.1727 123.936 20.1263C124.578 20.1478 125.218 20.0331 125.813 19.79C126.409 19.5469 126.945 19.181 127.389 18.716C127.832 18.2512 128.171 17.6979 128.384 17.093C128.596 16.4879 128.679 15.8447 128.625 15.2059C128.625 12.475 127.033 10.5313 124.243 10.5313C123.483 10.5295 122.733 10.6964 122.045 11.0197C121.359 11.3432 120.752 11.815 120.27 12.401H120.331Z" fill="white"/>
<path d="M140.624 8.2981C141.558 8.25789 142.489 8.41268 143.363 8.75295C144.237 9.09321 145.035 9.61215 145.709 10.2785C146.383 10.9448 146.92 11.7446 147.287 12.6301C147.654 13.5155 147.843 14.4681 147.843 15.4307C147.843 16.3933 147.654 17.3459 147.287 18.2313C146.92 19.1166 146.383 19.9166 145.709 20.5829C145.035 21.2491 144.237 21.768 143.363 22.1084C142.489 22.4487 141.558 22.6033 140.624 22.5631C139.69 22.6033 138.759 22.4487 137.884 22.1084C137.01 21.768 136.212 21.2491 135.538 20.5829C134.864 19.9166 134.328 19.1166 133.961 18.2313C133.594 17.3459 133.406 16.3933 133.406 15.4307C133.406 14.4681 133.594 13.5155 133.961 12.6301C134.328 11.7446 134.864 10.9448 135.538 10.2785C136.212 9.61215 137.01 9.09321 137.884 8.75295C138.759 8.41268 139.69 8.25789 140.624 8.2981ZM140.624 20.2833C141.562 20.3155 142.49 20.0582 143.285 19.5443C144.081 19.0305 144.711 18.2833 145.092 17.3988C145.472 16.5142 145.589 15.5327 145.425 14.5796C145.261 13.6267 144.824 12.7459 144.172 12.0501C143.519 11.3543 142.68 10.8753 141.761 10.6742C140.842 10.4732 139.885 10.5595 139.014 10.922C138.143 11.2846 137.397 11.9068 136.873 12.7089C136.347 13.5111 136.065 14.4566 136.065 15.4245C136.024 16.0597 136.113 16.6965 136.325 17.2944C136.538 17.8921 136.87 18.4373 137.299 18.895C137.729 19.3527 138.247 19.7127 138.818 19.9518C139.392 20.1909 140.006 20.3038 140.624 20.2833Z" fill="white"/>
<path d="M162.288 20.2866C161.649 21.0355 160.852 21.6292 159.954 22.0236C159.057 22.418 158.083 22.6029 157.105 22.5645C155.272 22.5587 153.513 21.8318 152.2 20.5377C150.888 19.2435 150.126 17.4838 150.075 15.6313C150.023 13.7786 150.688 11.9787 151.926 10.6125C153.164 9.24634 154.881 8.42115 156.711 8.31186C158.637 8.16916 160.541 8.79467 162.018 10.0546L160.91 11.9591C159.853 10.9941 158.465 10.4848 157.044 10.54C155.809 10.626 154.656 11.1897 153.823 12.114C152.99 13.0382 152.542 14.2516 152.573 15.5014C152.603 16.7514 153.109 17.9412 153.985 18.8234C154.861 19.7054 156.041 20.2118 157.278 20.2367C158.01 20.241 158.736 20.0866 159.404 19.7839C160.073 19.4811 160.671 19.0371 161.156 18.4816L162.288 20.2866Z" fill="white"/>
<path d="M164.509 8.29187H176.725V10.8344H171.838V22.5694H169.396V10.8344H164.509V8.29187Z" fill="white"/>
<path d="M185.201 8.30288C186.621 8.33236 188.003 8.77587 189.17 9.57809C190.337 10.3802 191.238 11.5051 191.761 12.8116C192.283 14.1182 192.404 15.5484 192.107 16.9226C191.812 18.2968 191.112 19.5539 190.096 20.5363C189.079 21.5185 187.792 22.1823 186.395 22.4443C185 22.7062 183.555 22.5548 182.245 22.0088C180.937 21.4628 179.819 20.5467 179.034 19.3754C178.248 18.204 177.831 16.8295 177.834 15.4244C177.8 14.4665 177.97 13.5124 178.331 12.6228C178.691 11.7332 179.235 10.9277 179.928 10.2576C180.622 9.58746 181.449 9.06761 182.357 8.73112C183.265 8.39449 184.234 8.24877 185.201 8.30288ZM185.201 20.2801C186.459 20.217 187.644 19.6786 188.512 18.7762C189.381 17.8736 189.865 16.6759 189.865 15.4306C189.865 14.1855 189.381 12.9879 188.512 12.0853C187.644 11.1827 186.459 10.6442 185.201 10.5812C183.943 10.6442 182.757 11.1827 181.889 12.0853C181.022 12.9879 180.538 14.1855 180.538 15.4306C180.538 16.6759 181.022 17.8736 181.889 18.7762C182.757 19.6786 183.943 20.217 185.201 20.2801Z" fill="white"/>
<path d="M207.946 20.7742C206.528 21.9586 204.733 22.5948 202.89 22.5687C198.477 22.5687 195.614 19.74 195.614 15.4285C195.553 14.4842 195.692 13.5376 196.022 12.6509C196.35 11.7643 196.862 10.9579 197.524 10.2846C198.186 9.61134 198.981 9.08651 199.858 8.74458C200.737 8.4028 201.677 8.25149 202.616 8.30107C203.445 8.26857 204.27 8.40658 205.043 8.70679C205.815 9.00684 206.518 9.46275 207.11 10.0464C207.7 10.6299 208.166 11.3288 208.478 12.1002C208.791 12.8715 208.943 13.6988 208.926 14.5314C208.934 15.0799 208.879 15.6274 208.764 16.1638H198.292C198.324 16.7494 198.474 17.3223 198.73 17.8483C198.989 18.3744 199.349 18.8428 199.791 19.2256C200.233 19.6083 200.748 19.8975 201.303 20.0757C201.859 20.2541 202.445 20.3178 203.026 20.2633C204.539 20.3073 206.017 19.8031 207.191 18.8428L207.946 20.7742ZM198.142 14.2198H206.384C206.389 13.7142 206.288 13.2131 206.086 12.7492C205.886 12.2852 205.592 11.8685 205.222 11.5258C204.852 11.1831 204.414 10.9221 203.938 10.7594C203.461 10.5968 202.957 10.5361 202.456 10.5813C201.408 10.5109 200.375 10.8503 199.571 11.5284C198.767 12.2065 198.255 13.1709 198.142 14.2198Z" fill="white"/>
<path d="M98.9834 47.5223H100.682C101.587 46.3242 102.517 43.3483 102.765 39.4833L102.976 35.7474H112.25V47.5223H114.532V53.3197H112.275V49.8413H101.252V53.2938H98.9834V47.5223ZM103.249 47.5223H109.832V38.1049H105.245L105.084 40.4624C105 42.9306 104.372 45.3459 103.249 47.5223Z" fill="white"/>
<path d="M129.173 48.229C127.737 49.4218 125.921 50.0584 124.057 50.0235C119.649 50.0235 116.767 47.1948 116.767 42.8832C116.706 41.941 116.845 40.9965 117.174 40.1116C117.503 39.2269 118.013 38.4216 118.674 37.7486C119.332 37.0758 120.127 36.5504 121.003 36.2068C121.881 35.8634 122.819 35.7095 123.759 35.7553C124.588 35.721 125.416 35.8578 126.191 36.1572C126.966 36.4568 127.671 36.9126 128.264 37.4967C128.855 38.0806 129.323 38.7803 129.635 39.5525C129.947 40.3246 130.098 41.1528 130.08 41.9859C130.084 42.5337 130.034 43.0806 129.93 43.6184H119.475C119.507 44.204 119.656 44.7769 119.915 45.303C120.173 45.8292 120.535 46.2976 120.977 46.6804C121.42 47.0631 121.936 47.3523 122.492 47.5305C123.05 47.7089 123.637 47.7727 124.218 47.7181C125.733 47.76 127.214 47.256 128.391 46.2976L129.173 48.229ZM119.339 41.6745H127.596C127.6 41.1691 127.501 40.6685 127.302 40.2044C127.102 39.7405 126.809 39.3236 126.439 38.9808C126.069 38.6379 125.632 38.3766 125.155 38.2138C124.678 38.0511 124.173 37.9904 123.672 38.0357C122.622 37.965 121.584 38.304 120.777 38.982C119.97 39.6598 119.455 40.6244 119.339 41.6745Z" fill="white"/>
<path d="M142.242 38.2533H137.751L137.61 40.6307C137.051 48.6498 135.112 50.0248 132.465 50.0248L132.301 47.5832C133.269 47.6731 135.079 46.6449 135.394 40.1296L135.626 35.7474H144.518V49.8834H142.242V38.2533Z" fill="white"/>
<path d="M155.209 35.757C156.631 35.7841 158.012 36.2256 159.182 37.0263C160.351 37.827 161.254 38.9514 161.779 40.2578C162.303 41.5643 162.425 42.9949 162.13 44.3702C161.835 45.7453 161.137 47.0038 160.12 47.9874C159.105 48.971 157.818 49.6361 156.421 49.899C155.024 50.162 153.58 50.0111 152.27 49.4654C150.958 48.9197 149.841 48.0035 149.055 46.8317C148.269 45.6599 147.852 44.285 147.854 42.8791C147.823 41.9229 147.993 40.9706 148.353 40.0827C148.714 39.1947 149.258 38.3905 149.949 37.721C150.64 37.0514 151.466 36.5313 152.371 36.1931C153.275 35.8551 154.243 35.7065 155.209 35.757ZM155.209 47.7352C156.187 47.7674 157.152 47.5103 157.982 46.9967C158.81 46.483 159.466 45.7364 159.862 44.8524C160.259 43.9684 160.38 42.9874 160.21 42.0349C160.039 41.0826 159.585 40.2022 158.905 39.5069C158.225 38.8114 157.351 38.3326 156.394 38.1318C155.437 37.9309 154.44 38.0172 153.534 38.3794C152.626 38.7417 151.849 39.3636 151.302 40.1653C150.755 40.9669 150.461 41.912 150.461 42.8791C150.42 43.5136 150.515 44.1494 150.736 44.7459C150.958 45.3423 151.304 45.8865 151.75 46.3435C152.198 46.8006 152.736 47.1604 153.332 47.4C153.927 47.6395 154.567 47.7538 155.209 47.7352Z" fill="white"/>
</g>
</svg>
