<svg width="184" height="72" viewBox="0 0 184 72" fill="none" xmlns="http://www.w3.org/2000/svg">
<g opacity="0.8">
<path d="M0.5 0.415162H71.0826V72.0007H0.5V0.415162Z" fill="#812926"/>
<path d="M9.6748 40.4216H14.0504V48.1743H20.5869V40.4216H24.9625V59.5975H20.5869V51.9819H14.0504V59.5975H9.6748V40.4216Z" fill="white"/>
<path d="M28.8496 53.1063V40.4227H33.1985V52.8316C33.1985 55.0232 34.4947 56.2566 36.4666 56.2566C38.4651 56.2566 39.735 55.0232 39.735 52.8316V40.4227H44.1107V53.1063C44.1107 57.5716 41.1126 60.0917 36.4666 60.0917C31.8205 60.0917 28.8496 57.5716 28.8496 53.1063Z" fill="white"/>
<path d="M57.7523 53.7091C57.7523 52.2849 56.699 51.3537 55.1324 51.3537H52.4043V56.2292H55.1324C56.7528 56.2296 57.7523 55.2984 57.7523 53.7091ZM52.4039 43.6281V48.2851H54.8348C56.5096 48.2851 57.509 47.4086 57.509 45.9564C57.509 44.5042 56.5367 43.6277 54.8348 43.6277H52.4039V43.6281ZM62.1547 54.2843C62.1547 57.5721 59.859 59.5991 56.1043 59.5991H48.0283V40.4228H55.8072C59.5614 40.4228 61.8847 42.313 61.8847 45.4087C61.8847 47.9021 60.4532 49.3813 58.2652 49.7919C60.4532 50.0112 62.1547 51.6276 62.1547 54.2843" fill="white"/>
<path d="M9.67383 28.5949H12.1805V37.151H9.67383V28.5949Z" fill="white"/>
<path d="M14.7465 28.5995H17.928L19.7236 34.1853L21.5071 28.5995H24.6165V37.1556H22.2059V31.7288L20.6632 37.156H18.8074L17.1563 31.7045V37.156H14.7461V28.5995H14.7465Z" fill="white"/>
<path d="M31.8384 31.7903C31.8384 31.0937 31.3562 30.5804 30.7296 30.5804H29.6811V33.0005H30.7177C31.3566 33.0005 31.8384 32.4872 31.8384 31.7903ZM34.3814 31.7903C34.3814 33.6239 33.0556 34.968 31.2481 34.968H29.6815V37.156H27.1748V28.5999H31.2481C33.0556 28.5999 34.3814 29.957 34.3814 31.7903Z" fill="white"/>
<path d="M40.0552 34.3204L39.1754 30.9958L38.2955 34.3204H40.0552ZM40.5374 36.1658H37.8137L37.5485 37.156H34.9453L37.8257 28.5999H40.5374L43.4058 37.156H40.8026L40.5374 36.1658Z" fill="white"/>
<path d="M44.4077 32.8731C44.4077 30.2207 46.3118 28.3264 49.0837 28.3264C51.7108 28.3264 53.4222 29.6338 53.6272 31.8833H50.9757C50.807 31.1009 50.1322 30.5876 49.0956 30.5876C47.7938 30.5876 47.0225 31.4674 47.0225 32.8731C47.0225 34.2787 47.7938 35.1589 49.0956 35.1589C50.1318 35.1589 50.807 34.6456 50.9757 33.8633H53.6272C53.4222 36.1123 51.7108 37.4201 49.0837 37.4201C46.3118 37.4201 44.4077 35.5258 44.4077 32.8731Z" fill="white"/>
<path d="M57.2205 30.7879H55.0513V28.5999H61.9088V30.7879H59.7396V37.156H57.2209V30.7879H57.2205Z" fill="white"/>
<path d="M80.644 40.4244H85.7216L90.7453 54.0384L95.7691 40.4244H100.739V59.5991H96.5524V47.163L92.3658 59.5991H89.1249L84.8302 47.0809V59.5991H80.644V40.4244Z" fill="#414140"/>
<path d="M113.594 52.9987C113.594 50.9993 112.432 49.5475 110.487 49.5475C108.516 49.5475 107.381 50.9993 107.381 52.9987C107.381 54.9982 108.516 56.45 110.487 56.45C112.433 56.4504 113.594 54.9986 113.594 52.9987ZM103.249 52.9987C103.249 48.9723 106.004 46.0138 110.487 46.0138C114.944 46.0138 117.699 48.9719 117.699 52.9987C117.699 57.0256 114.944 60.0112 110.487 60.0112C106.005 60.0112 103.249 57.0256 103.249 52.9987Z" fill="#414140"/>
<path d="M118.982 55.6284H123.088C123.088 56.5325 123.952 57.1898 125.222 57.1898C126.112 57.1898 126.734 56.7242 126.734 55.9569C126.734 55.4367 126.491 54.9982 125.789 54.834L122.602 54.0124C120.441 53.4647 119.334 52.0951 119.334 50.2048C119.334 47.7394 121.468 46.0142 124.898 46.0142C128.706 46.0142 130.705 47.6306 130.705 50.1227H126.626C126.626 49.1911 125.951 48.6709 124.843 48.6709C123.952 48.6709 123.358 49.109 123.358 49.7667C123.358 50.3691 123.763 50.7529 124.465 50.9443L127.545 51.7941C129.543 52.3414 130.839 53.5739 130.839 55.4642C130.839 58.176 128.705 60.0112 125.14 60.0112C121.333 60.0112 118.982 58.121 118.982 55.6284Z" fill="#414140"/>
<path d="M132.31 52.9987C132.31 48.8352 134.983 46.0138 139.278 46.0138C143.167 46.0138 145.706 48.1228 146.03 51.4099H141.898C141.601 50.1773 140.818 49.5475 139.305 49.5475C137.522 49.5475 136.442 50.8075 136.442 52.9987C136.442 55.1903 137.522 56.45 139.305 56.45C140.818 56.45 141.601 55.8477 141.898 54.6969H146.03C145.706 57.9021 143.167 60.0112 139.278 60.0112C134.983 60.0112 132.31 57.1623 132.31 52.9987Z" fill="#414140"/>
<path d="M157.718 52.9987C157.718 50.9993 156.556 49.5475 154.612 49.5475C152.641 49.5475 151.506 50.9993 151.506 52.9987C151.506 54.9982 152.641 56.45 154.612 56.45C156.556 56.4504 157.718 54.9986 157.718 52.9987ZM147.374 52.9987C147.374 48.9723 150.129 46.0138 154.612 46.0138C159.068 46.0138 161.823 48.9719 161.823 52.9987C161.823 57.0256 159.068 60.0112 154.612 60.0112C150.129 60.0112 147.374 57.0256 147.374 52.9987Z" fill="#414140"/>
<path d="M162.04 46.3953H166.361L168.712 54.394L170.926 46.3953H174.95L177.165 54.394L179.515 46.3953H183.81L179.137 59.5991H175.438L172.925 51.5729L170.441 59.5991H166.741L162.04 46.3953Z" fill="#414140"/>
</g>
</svg>
