<svg width="109" height="72" viewBox="0 0 109 72" fill="none" xmlns="http://www.w3.org/2000/svg">
<g opacity="0.8">
<path d="M50.6728 0.558304C31.8299 0.558304 16.5566 15.8951 16.5566 34.8168C16.5566 53.7374 31.8299 69.0742 50.6728 69.0742V0.558304Z" fill="#B3C8D1"/>
<path d="M84.9308 34.8179H84.6448C84.6448 34.6808 84.6439 34.5441 84.6426 34.4073L84.9282 34.4041C84.9298 34.5419 84.9308 34.6799 84.9308 34.8179Z" fill="white"/>
<path d="M51.0946 0.704964C50.8213 0.701767 50.5467 0.701126 50.2737 0.704643L50.2701 0.417694C50.546 0.414497 50.8222 0.414818 51.0981 0.418015L51.0946 0.704964ZM48.2231 0.789635L48.2031 0.503326C48.4777 0.483833 48.7529 0.467216 49.0294 0.454117L49.0431 0.740746C48.7688 0.753845 48.4958 0.770142 48.2231 0.789635ZM53.1452 0.791237C52.8728 0.771423 52.5998 0.755127 52.3258 0.741707L52.3392 0.455399C52.6157 0.468498 52.8909 0.485435 53.1656 0.505249L53.1452 0.791237ZM46.1824 0.997658L46.1449 0.713272C46.4179 0.676842 46.6915 0.643929 46.9665 0.614204L46.9974 0.899559C46.7246 0.928955 46.4529 0.961548 46.1824 0.997658ZM55.1862 1.00085C54.9154 0.964752 54.644 0.931831 54.3709 0.902115L54.4018 0.616768C54.6767 0.646805 54.951 0.680031 55.2237 0.716461L55.1862 1.00085ZM44.1573 1.3287L44.1029 1.04719C44.3731 0.994461 44.6445 0.944931 44.9172 0.898598L44.9649 1.1814C44.6948 1.22741 44.4253 1.27631 44.1573 1.3287ZM57.211 1.3335C56.943 1.28109 56.6735 1.23189 56.403 1.18555L56.4511 0.902756C56.7238 0.949409 56.9952 0.998932 57.2654 1.05198L57.211 1.3335ZM42.1558 1.78278L42.0842 1.5051C42.3512 1.43607 42.6194 1.36993 42.8883 1.30729L42.9529 1.58657C42.6862 1.64888 42.4202 1.71439 42.1558 1.78278ZM59.2119 1.78916C58.9471 1.72047 58.6814 1.65464 58.4144 1.59201L58.4797 1.31273C58.7486 1.376 59.0165 1.44183 59.2831 1.51148L59.2119 1.78916ZM40.1857 2.35827L40.0973 2.0857C40.3595 2.00006 40.6233 1.91795 40.888 1.8387L40.9695 2.11349C40.7066 2.19211 40.4454 2.27391 40.1857 2.35827ZM61.1813 2.36562C60.9213 2.28094 60.66 2.19913 60.3978 2.12053L60.4793 1.84573C60.7441 1.92497 61.0075 2.00742 61.2694 2.09305L61.1813 2.36562ZM38.2481 3.05519L38.1438 2.78838C38.4012 2.68676 38.6599 2.58802 38.9202 2.4928L39.0182 2.76217C38.7601 2.85675 38.5034 2.95453 38.2481 3.05519ZM63.1125 3.0619C62.8582 2.96125 62.6024 2.86378 62.3447 2.7692L62.443 2.49982C62.7023 2.59505 62.9607 2.69347 63.2172 2.79508L63.1125 3.0619ZM36.3577 3.86907L36.2371 3.60896C36.4878 3.492 36.7398 3.37793 36.9938 3.26673L37.108 3.52971C36.8563 3.63995 36.6062 3.75307 36.3577 3.86907ZM64.9931 3.87226C64.7459 3.7569 64.4974 3.64442 64.2469 3.5345L64.3612 3.27151C64.6135 3.38208 64.8646 3.49584 65.1137 3.61215L64.9931 3.87226ZM66.8216 4.79542C66.5816 4.66537 66.3401 4.53755 66.0967 4.41261L66.2268 4.1573C66.4718 4.28352 66.7159 4.41196 66.9574 4.5433L66.8216 4.79542ZM34.5209 4.79638L34.3847 4.54426C34.6279 4.41196 34.8726 4.28288 35.1192 4.15633L35.249 4.41197C35.0043 4.53723 34.7618 4.66537 34.5209 4.79638ZM68.5927 5.82882C68.3611 5.68406 68.1272 5.54219 67.892 5.40287L68.0368 5.15555C68.2745 5.29646 68.51 5.43962 68.7439 5.58565L68.5927 5.82882ZM32.7442 5.83329L32.5932 5.5898C32.8274 5.44313 33.0639 5.29934 33.3022 5.15842L33.4473 5.40542C33.2109 5.54538 32.9767 5.6879 32.7442 5.83329ZM70.299 6.96798C70.0762 6.80949 69.8516 6.65324 69.6247 6.50018L69.7844 6.26212C70.0132 6.41677 70.2398 6.57399 70.4644 6.73408L70.299 6.96798ZM31.0339 6.97565L30.8684 6.74175C31.0937 6.58134 31.3207 6.42348 31.5499 6.26851L31.7097 6.50624C31.4823 6.66026 31.2571 6.81652 31.0339 6.97565ZM71.9349 8.20845C71.722 8.03686 71.5069 7.8675 71.2899 7.70038L71.4633 7.47254C71.6822 7.64094 71.8993 7.81158 72.114 7.98509L71.9349 8.20845ZM29.3954 8.21899L29.2164 7.99564C29.4315 7.8218 29.6488 7.65085 29.8682 7.48213L30.0419 7.70996C29.8244 7.87709 29.609 8.04676 29.3954 8.21899ZM73.4948 9.54605C73.2927 9.36168 73.0878 9.17954 72.8809 8.99996L73.0674 8.78267C73.2761 8.96385 73.4827 9.14758 73.687 9.33388L73.4948 9.54605ZM27.8352 9.55852L27.6432 9.34634C27.8474 9.16005 28.054 8.97599 28.2627 8.79449L28.4498 9.01146C28.2427 9.19136 28.0378 9.37382 27.8352 9.55852ZM74.9719 10.9757C74.7807 10.7792 74.5872 10.5849 74.3912 10.3932L74.5907 10.1877C74.788 10.381 74.9833 10.5769 75.1765 10.7753L74.9719 10.9757ZM26.3586 10.9891L26.1542 10.7888C26.3468 10.5906 26.542 10.3944 26.7394 10.2008L26.9389 10.4063C26.7431 10.5983 26.5498 10.7926 26.3586 10.9891ZM76.3615 12.4922C76.1824 12.2845 76.0007 12.0791 75.8161 11.8755L76.0274 11.6825C76.2132 11.8877 76.3968 12.095 76.5773 12.3047L76.3615 12.4922ZM24.9706 12.5057L24.7545 12.3181C24.935 12.1085 25.1179 11.9014 25.3033 11.6963L25.5146 11.8893C25.331 12.0925 25.1494 12.298 24.9706 12.5057ZM77.6586 14.0906C77.4921 13.8723 77.3232 13.656 77.1513 13.4416L77.3738 13.262C77.5469 13.4777 77.7177 13.6959 77.8854 13.9161L77.6586 14.0906ZM23.6762 14.1021L23.4494 13.9279C23.6168 13.7081 23.787 13.4905 23.9599 13.2748L24.1822 13.4544C24.0111 13.6681 23.8424 13.8842 23.6762 14.1021ZM78.8576 15.7647C78.7042 15.5365 78.5483 15.3103 78.3895 15.0863L78.6227 14.9198C78.7828 15.146 78.94 15.3742 79.0943 15.6043L78.8576 15.7647ZM22.4803 15.7739L22.2433 15.6135C22.3973 15.3838 22.5542 15.1563 22.7134 14.9307L22.9464 15.0968C22.7884 15.3205 22.633 15.5461 22.4803 15.7739ZM79.9544 17.509C79.8154 17.2719 79.6731 17.0364 79.528 16.8032L79.7705 16.6514C79.9169 16.8866 80.0601 17.124 80.2007 17.363L79.9544 17.509ZM21.387 17.5132L21.1408 17.3675C21.2808 17.1291 21.4236 16.8927 21.5691 16.6581L21.8114 16.8099C21.6673 17.0422 21.5257 17.2767 21.387 17.5132ZM20.4005 19.3151L20.1459 19.1847C20.2714 18.9384 20.3995 18.6939 20.5306 18.4511L20.7817 18.5875C20.6519 18.8284 20.5246 19.071 20.4005 19.3151ZM80.9447 19.3177C80.8197 19.0723 80.692 18.8284 80.5613 18.5869L80.8123 18.4501C80.9444 18.6942 81.0733 18.9396 81.1986 19.1873L80.9447 19.3177ZM19.5248 21.1726L19.263 21.0576C19.3734 20.8042 19.4865 20.5524 19.6026 20.3025L19.8614 20.4236C19.7463 20.6716 19.6341 20.9211 19.5248 21.1726ZM81.8239 21.1841C81.7138 20.9317 81.6015 20.6805 81.4857 20.4309L81.7441 20.3095C81.8612 20.5613 81.9751 20.8144 82.0855 21.0691L81.8239 21.1841ZM18.7626 23.0812L18.4945 22.9825C18.5892 22.7221 18.6874 22.4632 18.7886 22.2057L19.0543 22.3108C18.954 22.5661 18.8568 22.8227 18.7626 23.0812ZM82.5889 23.1017C82.4947 22.8425 82.397 22.5847 82.2968 22.3284L82.5625 22.2236C82.6637 22.4821 82.7617 22.7416 82.8572 23.0029L82.5889 23.1017ZM18.1155 25.0368L17.8416 24.9547C17.9208 24.6885 18.0031 24.4239 18.0884 24.161L18.36 24.2498C18.2753 24.5109 18.1939 24.7729 18.1155 25.0368ZM83.2368 25.0637C83.1582 24.7991 83.0764 24.5355 82.9918 24.2734L83.2635 24.1852C83.3485 24.4492 83.4309 24.7147 83.5101 24.9815L83.2368 25.0637ZM17.5884 27.0279L17.3103 26.9624C17.3734 26.6921 17.4393 26.4233 17.5084 26.1555L17.785 26.2274C17.7165 26.493 17.6508 26.7598 17.5884 27.0279ZM83.7622 27.0554C83.7001 26.7876 83.6349 26.5205 83.5664 26.2549L83.843 26.183C83.912 26.4511 83.9779 26.7202 84.0406 26.9905L83.7622 27.0554ZM17.1827 29.0474L16.9012 28.9991C16.9477 28.7256 16.9973 28.453 17.0501 28.1818L17.3304 28.2367C17.2782 28.5058 17.229 28.7761 17.1827 29.0474ZM84.1663 29.0755C84.1201 28.8039 84.0715 28.5339 84.0193 28.2645L84.2993 28.2096C84.3521 28.4809 84.4018 28.7537 84.4476 29.0276L84.1663 29.0755ZM16.8997 31.0883L16.6157 31.0573C16.6456 30.7812 16.6787 30.5061 16.7151 30.2319L16.9982 30.27C16.9621 30.5416 16.9293 30.8145 16.8997 31.0883ZM84.4473 31.1164C84.418 30.8426 84.3855 30.5697 84.3496 30.2981L84.6328 30.2604C84.669 30.5345 84.7018 30.8097 84.7314 31.0854L84.4473 31.1164ZM16.7394 33.142L16.4541 33.1283C16.4674 32.8506 16.4842 32.5742 16.5039 32.2984L16.7888 32.3192C16.7692 32.5927 16.7527 32.8669 16.7394 33.142ZM84.606 33.1705C84.593 32.8953 84.5768 32.6212 84.5577 32.3476L84.8425 32.3272C84.8619 32.6029 84.8784 32.8794 84.8915 33.1567L84.606 33.1705ZM16.4157 35.2059C16.4143 35.0765 16.4136 34.9468 16.4136 34.8174C16.4136 34.6694 16.4144 34.5218 16.4163 34.3745L16.7018 34.3783C16.7 34.5244 16.6991 34.6707 16.6991 34.8174C16.6991 34.9462 16.6998 35.0743 16.7013 35.2027L16.4157 35.2059ZM16.5001 37.282C16.4807 37.0059 16.4643 36.7295 16.4515 36.4518L16.7367 36.4384C16.7495 36.7139 16.7656 36.988 16.785 37.2612L16.5001 37.282ZM16.708 39.3485C16.6722 39.0743 16.6394 38.7995 16.6098 38.5231L16.8939 38.4928C16.9231 38.7663 16.9556 39.0395 16.9912 39.3111L16.708 39.3485ZM17.0399 41.3996C16.9875 41.1284 16.9384 40.8554 16.8924 40.5817L17.1739 40.534C17.2197 40.8056 17.2684 41.0759 17.3203 41.3447L17.0399 41.3996ZM17.4951 43.4265C17.4262 43.1587 17.3606 42.8893 17.2983 42.6194L17.5765 42.5545C17.6386 42.8226 17.7034 43.0893 17.7717 43.3546L17.4951 43.4265ZM18.0727 45.4248C17.9876 45.1606 17.9055 44.8947 17.8266 44.628L18.1004 44.5461C18.1788 44.8111 18.2602 45.0743 18.3447 45.3364L18.0727 45.4248ZM18.7723 47.3875C18.6712 47.129 18.5733 46.8689 18.4781 46.6075L18.7464 46.5092C18.8408 46.7683 18.9379 47.0262 19.0383 47.2824L18.7723 47.3875ZM19.589 49.3019C19.4725 49.0501 19.359 48.797 19.2484 48.542L19.5103 48.427C19.62 48.68 19.7326 48.9316 19.8481 49.1815L19.589 49.3019ZM20.5196 51.1623C20.3881 50.9178 20.2596 50.6725 20.1336 50.4248L20.3882 50.2944C20.5128 50.5401 20.6404 50.7837 20.7707 51.0256L20.5196 51.1623ZM21.5604 52.9617C21.4143 52.7264 21.2713 52.4884 21.1309 52.2491L21.377 52.1037C21.516 52.3411 21.6579 52.5766 21.8028 52.8099L21.5604 52.9617ZM22.7067 54.6938C22.547 54.4676 22.3898 54.2395 22.2355 54.0091L22.4726 53.8486C22.6254 54.0772 22.7813 54.3034 22.9397 54.5277L22.7067 54.6938ZM23.9549 56.3529C23.7819 56.1366 23.6115 55.9187 23.4438 55.6981L23.6706 55.524C23.8371 55.7426 24.006 55.9589 24.1777 56.1733L23.9549 56.3529ZM25.2996 57.9331C25.114 57.728 24.9309 57.5203 24.7504 57.3109L24.9663 57.123C25.1453 57.3314 25.3268 57.5369 25.5109 57.7403L25.2996 57.9331ZM26.7356 59.4288C26.5381 59.2352 26.3431 59.0394 26.1504 58.8409L26.3549 58.6405C26.5461 58.8374 26.7395 59.0316 26.9351 59.2237L26.7356 59.4288ZM28.2578 60.8351C28.0491 60.6533 27.8429 60.4699 27.6389 60.2836L27.831 60.0715C28.0335 60.2559 28.2381 60.438 28.4449 60.6185L28.2578 60.8351ZM29.8609 62.1463C29.642 61.9781 29.4251 61.8069 29.2106 61.6334L29.3897 61.4097C29.6026 61.582 29.8177 61.7516 30.0347 61.9183L29.8609 62.1463ZM31.5392 63.3579C31.3105 63.2032 31.0839 63.0457 30.8595 62.8857L31.0248 62.6514C31.2474 62.8102 31.4721 62.9665 31.699 63.1203L31.5392 63.3579ZM33.286 64.4658C33.0486 64.3249 32.8131 64.1814 32.5795 64.0353L32.7306 63.7919C32.962 63.9369 33.1956 64.0791 33.4311 64.2184L33.286 64.4658ZM35.095 65.465C34.85 65.3391 34.6062 65.2104 34.3644 65.0787L34.5006 64.8266C34.7405 64.9569 34.982 65.0844 35.2251 65.2096L35.095 65.465ZM36.96 66.352C36.7077 66.2412 36.4569 66.1274 36.2081 66.0111L36.3287 65.7506C36.5756 65.8667 36.8245 65.9791 37.0746 66.0894L36.96 66.352ZM38.8772 67.125C38.6176 67.0295 38.3598 66.931 38.1034 66.8294L38.2081 66.5623C38.4623 66.6633 38.7181 66.761 38.9753 66.8553L38.8772 67.125ZM40.8406 67.7804C40.5759 67.7012 40.3124 67.6184 40.0502 67.5328L40.139 67.2598C40.3986 67.3452 40.6595 67.427 40.9224 67.506L40.8406 67.7804ZM42.8399 68.3157C42.571 68.252 42.3031 68.1856 42.0364 68.1162L42.1084 67.8386C42.3728 67.9073 42.6385 67.9731 42.9052 68.0361L42.8399 68.3157ZM44.8682 68.7269C44.5958 68.6799 44.3241 68.6304 44.0539 68.5771L44.109 68.2955C44.3769 68.3483 44.6461 68.3981 44.9163 68.4441L44.8682 68.7269ZM46.9172 69.0138C46.6422 68.9838 46.3682 68.9505 46.0952 68.9142L46.1334 68.6295C46.4039 68.6658 46.6756 68.6988 46.9483 68.7288L46.9172 69.0138ZM48.9782 69.1768C48.7026 69.1633 48.4277 69.1467 48.1537 69.1266L48.1744 68.8407C48.4462 68.8604 48.7189 68.8771 48.9922 68.8905L48.9782 69.1768Z" fill="white"/>
<path d="M50.6716 69.2189C50.5339 69.2189 50.3964 69.2181 50.2593 69.2163L50.2634 68.9293C50.399 68.9313 50.5351 68.9315 50.6716 68.9315V69.2189Z" fill="white"/>
<path d="M50.6724 55.2943V55.4289H92.0944V13.8321H91.9613L50.6724 55.2943Z" fill="#B3C8D1"/>
<path d="M51.4927 55.5382H50.6724V55.2513H51.4927V55.5382ZM53.5442 55.5382H52.7235V55.2513H53.5442V55.5382ZM55.5954 55.5382H54.775V55.2513H55.5954V55.5382ZM57.6472 55.5382H56.8265V55.2513H57.6472V55.5382ZM59.6984 55.5382H58.8781V55.2513H59.6984V55.5382ZM61.7499 55.5382H60.9292V55.2513H61.7499V55.5382ZM63.8011 55.5382H62.9807V55.2513H63.8011V55.5382ZM65.8529 55.5382H65.0322V55.2513H65.8529V55.5382ZM67.9041 55.5382H67.0837V55.2513H67.9041V55.5382ZM69.9556 55.5382H69.1349V55.2513H69.9556V55.5382ZM72.0071 55.5382H71.1861V55.2513H72.0071V55.5382ZM74.0583 55.5382H73.2379V55.2513H74.0583V55.5382ZM76.1098 55.5382H75.2891V55.2513H76.1098V55.5382ZM78.161 55.5382H77.3406V55.2513H78.161V55.5382ZM80.2128 55.5382H79.3921V55.2513H80.2128V55.5382ZM82.264 55.5382H81.4436V55.2513H82.264V55.5382ZM84.3155 55.5382H83.4948V55.2513H84.3155V55.5382ZM86.367 55.5382H85.546V55.2513H86.367V55.5382ZM88.4182 55.5382H87.5978V55.2513H88.4182V55.5382ZM90.4697 55.5382H89.649V55.2513H90.4697V55.5382ZM92.5208 55.5382H91.7005V55.2513H92.5208V55.5382ZM94.5727 55.5382H93.752V55.2513H94.5727V55.5382ZM96.6238 55.5382H95.8035V55.2513H96.6238V55.5382ZM98.6753 55.5382H97.8547V55.2513H98.6753V55.5382ZM100.727 55.5382H99.9062V55.2513H100.727V55.5382ZM102.778 55.5382H101.958V55.2513H102.778V55.5382ZM104.83 55.5382H104.009V55.2513H104.83V55.5382ZM106.881 55.5382H106.06V55.2513H106.881V55.5382ZM108.782 55.5382H108.112V55.2513H108.782V55.5382Z" fill="white"/>
<path d="M92.9819 55.4289C97.4715 55.4289 101.109 51.7745 101.109 47.2671C101.109 42.7593 97.4715 39.1054 92.9819 39.1054V55.4289Z" fill="#B3C8D1"/>
<path d="M50.6726 29.5092C47.7833 29.5092 45.4326 31.8693 45.4326 34.7711C45.4326 37.6716 47.7833 40.034 50.6726 40.034C53.5623 40.034 55.9123 37.6716 55.9123 34.7711C55.9123 31.8693 53.5623 29.5092 50.6726 29.5092ZM50.6726 55.71C39.1754 55.71 29.8213 46.3155 29.8213 34.7711C29.8213 23.2257 39.1754 13.8328 50.6726 13.8328C62.1696 13.8328 71.5234 23.2257 71.5234 34.7711C71.5234 46.3155 62.1696 55.71 50.6726 55.71Z" fill="url(#paint0_linear_825_1460)"/>
<path d="M51.8364 69.1932V57.7741H52.3958V68.6543H60.0153V57.7741H60.574V68.6543H61.437V72.0011H60.8776V69.1932H51.8364Z" fill="white"/>
<path d="M67.5184 69.3097C66.8358 69.3097 66.2217 69.2033 65.6775 68.9946C65.1347 68.7825 64.6761 68.494 64.3035 68.1278C63.9302 67.7613 63.6467 67.3212 63.4529 66.8055C63.2582 66.291 63.1611 65.7299 63.1611 65.1208V61.6583C63.1611 61.0493 63.262 60.4954 63.4641 59.9964C63.6655 59.4975 63.9576 59.0687 64.3379 58.7099C64.72 58.3516 65.1773 58.0747 65.7122 57.8795C66.2478 57.6838 66.8508 57.587 67.5184 57.587C68.0778 57.587 68.6537 57.6609 69.2437 57.809C69.834 57.9571 70.346 58.1941 70.7806 58.522L70.408 59.0364C70.0042 58.7249 69.5383 58.4958 69.0104 58.3475C68.4822 58.198 68.0164 58.1238 67.6122 58.1238C67.1155 58.1238 66.6372 58.1919 66.179 58.3229C65.7214 58.4559 65.3129 58.6738 64.9555 58.9796C64.5988 59.2809 64.3105 59.6777 64.0932 60.1597C63.8749 60.6435 63.7676 61.2295 63.7676 61.9145V64.9803C63.7676 65.6501 63.8749 66.2249 64.0932 66.7009C64.3105 67.1753 64.5988 67.5659 64.9555 67.8695C65.3129 68.1751 65.7214 68.401 66.179 68.5489C66.6372 68.6968 67.0993 68.771 67.5648 68.771C67.7666 68.771 67.9931 68.7556 68.2417 68.7253C68.4899 68.6931 68.7457 68.6438 69.0104 68.5735C69.2749 68.5016 69.5348 68.416 69.7904 68.3156C70.0472 68.213 70.269 68.0989 70.4554 67.976L70.758 68.4671C70.3071 68.748 69.7939 68.9588 69.2201 69.0991C68.6455 69.2392 68.0778 69.3097 67.5184 69.3097Z" fill="white"/>
<path d="M73.0871 69.1937H72.458V57.7745H73.018V68.3991L80.5913 57.7745H81.1726V69.1937H80.6138V58.6399L73.0871 69.1937Z" fill="white"/>
<path d="M91.5423 61.9312C91.5423 61.2467 91.4306 60.6638 91.2053 60.1801C90.9806 59.6981 90.6882 59.3058 90.3232 59.0019C89.9588 58.6983 89.5525 58.4801 89.1025 58.3472C88.6539 58.2165 88.2052 58.1477 87.7559 58.1477C87.2906 58.1477 86.8299 58.2165 86.3735 58.3472C85.9172 58.4801 85.509 58.6983 85.1538 59.0019C84.7977 59.3058 84.5079 59.6981 84.2832 60.1801C84.0585 60.6638 83.9468 61.2467 83.9468 61.9312V65.014C83.9468 65.6989 84.0506 66.2829 84.2603 66.7651C84.4684 67.247 84.7513 67.6414 85.1077 67.9433C85.4641 68.2465 85.8701 68.4705 86.3274 68.6092C86.7843 68.7495 87.2607 68.8198 87.7559 68.8198C88.2828 68.8198 88.7776 68.7456 89.2429 68.598C89.7074 68.4501 90.1097 68.2203 90.4508 67.9087C90.7916 67.5982 91.0579 67.2036 91.2527 66.729C91.4452 66.2551 91.5423 65.6835 91.5423 65.014V61.9312ZM87.6979 69.3585C87.0303 69.3585 86.4273 69.2563 85.8914 69.0533C85.3559 68.8501 84.898 68.5654 84.5174 68.1996C84.1359 67.8333 83.845 67.3953 83.643 66.8884C83.4412 66.3817 83.3403 65.8238 83.3403 65.2173V61.6122C83.3403 61.0031 83.4578 60.4551 83.6894 59.9637C83.9233 59.4722 84.2377 59.051 84.6335 58.6983C85.0291 58.349 85.4924 58.0799 86.0197 57.8921C86.5482 57.7042 87.115 57.6112 87.7202 57.6112C88.3261 57.6112 88.8976 57.7042 89.4331 57.8921C89.97 58.0799 90.4368 58.349 90.8323 58.6983C91.2285 59.051 91.5388 59.4722 91.7644 59.9637C91.9897 60.4551 92.1017 61.0031 92.1017 61.6122V65.1696C92.1017 66.4482 91.7214 67.4652 90.9599 68.2223C90.1988 68.9792 89.1111 69.3585 87.6979 69.3585Z" fill="white"/>
<path d="M58.7375 34.82C58.7375 39.2916 55.1268 42.919 50.6718 42.919C46.2159 42.919 42.6055 39.2916 42.6055 34.82C42.6055 30.3464 46.2159 26.7189 50.6718 26.7189C55.1268 26.7189 58.7375 30.3464 58.7375 34.82Z" fill="white"/>
<path d="M103.392 2.94201L103.192 2.73782L103.236 2.69341L103.437 2.89791L103.392 2.94201ZM101.933 4.3889L101.732 4.18471L102.316 3.60602L102.516 3.8102L101.933 4.3889ZM100.472 5.8361L100.271 5.63191L100.855 5.05291L101.056 5.25741L100.472 5.8361ZM99.0123 7.28299L98.8115 7.07912L99.3954 6.50011L99.5962 6.7043L99.0123 7.28299ZM97.552 8.73019L97.3513 8.52601L97.9352 7.94732L98.136 8.1515L97.552 8.73019ZM96.0921 10.1771L95.8913 9.97321L96.4752 9.3942L96.676 9.59839L96.0921 10.1771ZM94.6318 11.6243L94.4311 11.4201L95.015 10.8414L95.2158 11.0453L94.6318 11.6243ZM93.1719 13.0712L92.9711 12.867L93.555 12.2883L93.7558 12.4925L93.1719 13.0712ZM91.7116 14.5184L91.5112 14.3142L92.0951 13.7355L92.2955 13.9394L91.7116 14.5184ZM90.252 15.9653L90.0512 15.7611L90.6351 15.1824L90.8356 15.3866L90.252 15.9653ZM88.7917 17.4125L88.591 17.2083L89.1749 16.6293L89.3757 16.8335L88.7917 17.4125ZM87.3318 18.8594L87.131 18.6552L87.7149 18.0765L87.9157 18.2807L87.3318 18.8594ZM85.8715 20.3066L85.6707 20.1024L86.2547 19.5234L86.4554 19.7276L85.8715 20.3066ZM84.4116 21.7535L84.2108 21.5493L84.7947 20.9706L84.9955 21.1744L84.4116 21.7535ZM82.9513 23.2003L82.7505 22.9965L83.3345 22.4178L83.5352 22.6217L82.9513 23.2003ZM81.4914 24.6476L81.2906 24.4437L81.8745 23.8647L82.0753 24.0685L81.4914 24.6476ZM80.0311 26.0944L79.8306 25.8906L80.4142 25.3116L80.615 25.5157L80.0311 26.0944ZM78.5715 27.5416L78.3707 27.3375L78.9546 26.7585L79.1551 26.9626L78.5715 27.5416ZM77.1112 28.9885L76.9104 28.7843L77.4944 28.2057L77.6951 28.4098L77.1112 28.9885ZM75.6513 30.4357L75.4505 30.2316L76.0344 29.6525L76.2352 29.8567L75.6513 30.4357ZM74.191 31.8826L73.9902 31.6784L74.5742 31.0998L74.7749 31.3039L74.191 31.8826Z" fill="white"/>
<path d="M98.2639 44.0966L98.1118 43.8538L98.8058 43.4144L98.9583 43.6572L98.2639 44.0966ZM96.5284 45.1949L96.3763 44.9523L97.0703 44.513L97.2227 44.7555L96.5284 45.1949ZM94.7932 46.2934L94.6411 46.0507L95.3348 45.6113L95.4872 45.8541L94.7932 46.2934ZM93.0577 47.3917L92.9053 47.1492L93.5996 46.7098L93.752 46.9524L93.0577 47.3917Z" fill="white"/>
<path d="M27.3615 11.6127L26.7812 11.0302L26.9832 10.8273L27.5635 11.4098L27.3615 11.6127ZM28.8121 13.0695L28.2318 12.4866L28.4338 12.2837L29.0141 12.8666L28.8121 13.0695ZM30.2627 14.526L29.6823 13.9431L29.8843 13.7405L30.4646 14.323L30.2627 14.526ZM31.7133 15.9824L31.1329 15.3999L31.3349 15.197L31.9152 15.7798L31.7133 15.9824ZM33.1638 17.4392L32.5835 16.8567L32.7854 16.6538L33.3655 17.2363L33.1638 17.4392ZM34.6142 18.896L34.0341 18.3132L34.2361 18.1103L34.8162 18.6931L34.6142 18.896ZM36.0649 20.3525L35.4848 19.77L35.6866 19.5671L36.267 20.1496L36.0649 20.3525ZM37.5153 21.8093L36.9352 21.2264L37.1373 21.0235L37.7174 21.6064L37.5153 21.8093ZM38.966 23.2658L38.3859 22.6829L38.588 22.4803L39.1681 23.0628L38.966 23.2658ZM40.4168 24.7225L39.8364 24.1397L40.0384 23.9368L40.6185 24.5196L40.4168 24.7225ZM41.8672 26.179L41.2871 25.5965L41.4888 25.3936L42.0692 25.9761L41.8672 26.179ZM43.3179 27.6358L42.7375 27.053L42.9396 26.8504L43.52 27.4329L43.3179 27.6358ZM44.7683 29.0923L44.1882 28.5094L44.39 28.3069L44.9704 28.8897L44.7683 29.0923ZM46.219 30.5491L45.6386 29.9662L45.8407 29.7633L46.4208 30.3462L46.219 30.5491ZM47.6694 32.0056L47.0893 31.423L47.2914 31.2201L47.8715 31.8026L47.6694 32.0056ZM49.1202 33.462L48.5398 32.8795L48.7418 32.6766L49.3219 33.2594L49.1202 33.462ZM50.5706 34.9188L49.9905 34.3363L50.1925 34.1334L50.7726 34.7159L50.5706 34.9188Z" fill="white"/>
<path d="M1.77461 34.9609H0.954102V34.6743H1.77461V34.9609ZM3.82608 34.9609H3.00557V34.6743H3.82608V34.9609ZM5.87756 34.9609H5.05705V34.6743H5.87756V34.9609ZM7.9289 34.9609H7.10824V34.6743H7.9289V34.9609ZM9.98034 34.9609H9.15971V34.6743H9.98034V34.9609ZM12.0317 34.9609H11.2112V34.6743H12.0317V34.9609ZM14.0832 34.9609H13.2625V34.6743H14.0832V34.9609ZM16.1345 34.9609H15.314V34.6743H16.1345V34.9609ZM18.186 34.9609H17.3654V34.6743H18.186V34.9609ZM20.2374 34.9609H19.4168V34.6743H20.2374V34.9609ZM22.2889 34.9609H21.4683V34.6743H22.2889V34.9609ZM24.3402 34.9609H23.5197V34.6743H24.3402V34.9609ZM26.3917 34.9609H25.5711V34.6743H26.3917V34.9609ZM28.4429 34.9609H27.6224V34.6743H28.4429V34.9609ZM30.4944 34.9609H29.6739V34.6743H30.4944V34.9609ZM32.5459 34.9609H31.7253V34.6743H32.5459V34.9609ZM34.5973 34.9609H33.7766V34.6743H34.5973V34.9609ZM36.6488 34.9609H35.8281V34.6743H36.6488V34.9609ZM38.7003 34.9609H37.8796V34.6743H38.7003V34.9609ZM40.7515 34.9609H39.9311V34.6743H40.7515V34.9609ZM42.803 34.9609H41.9826V34.6743H42.803V34.9609ZM44.8545 34.9609H44.0338V34.6743H44.8545V34.9609ZM46.9057 34.9609H46.0853V34.6743H46.9057V34.9609ZM48.9572 34.9609H48.1365V34.6743H48.9572V34.9609ZM51.0087 34.9609H50.188V34.6743H51.0087V34.9609ZM53.0602 34.9609H52.2395V34.6743H53.0602V34.9609ZM55.1114 34.9609H54.291V34.6743H55.1114V34.9609ZM57.1629 34.9609H56.3422V34.6743H57.1629V34.9609ZM59.2141 34.9609H58.3937V34.6743H59.2141V34.9609ZM61.2659 34.9609H60.4452V34.6743H61.2659V34.9609ZM63.3171 34.9609H62.4967V34.6743H63.3171V34.9609ZM65.3686 34.9609H64.5479V34.6743H65.3686V34.9609ZM67.4201 34.9609H66.5994V34.6743H67.4201V34.9609ZM69.4716 34.9609H68.6509V34.6743H69.4716V34.9609ZM71.5228 34.9609H70.7021V34.6743H71.5228V34.9609Z" fill="white"/>
</g>
<defs>
<linearGradient id="paint0_linear_825_1460" x1="29.8213" y1="34.7714" x2="71.5235" y2="34.7714" gradientUnits="userSpaceOnUse">
<stop stop-color="#FFF424"/>
<stop offset="1" stop-color="#EE5233"/>
</linearGradient>
</defs>
</svg>
