<svg width="222" height="237" viewBox="0 0 222 237" fill="none" xmlns="http://www.w3.org/2000/svg">
<g filter="url(#filter0_f_937_8992)">
<ellipse cx="119.547" cy="220.597" rx="74.8248" ry="3.87011" fill="#898888" fill-opacity="0.6"/>
</g>
<path fill-rule="evenodd" clip-rule="evenodd" d="M194.185 73.4775C190.277 59.7518 181.772 47.4358 170.226 38.7855C148.381 22.419 118.895 21.2385 96.6782 35.8415C78.3192 47.9085 67.4873 68.4374 67.9751 90.2411C68.3372 106.419 74.9125 122.134 86.2213 133.847C87.5652 135.24 88.6821 136.49 88.7027 136.626C88.7234 136.761 79.9661 148.692 69.2411 163.139C48.6892 190.825 48.669 190.856 49.0926 193.669C49.3011 195.058 50.8567 197.615 51.9196 198.318C53.0778 199.085 55.5491 199.669 56.8652 199.489C59.6679 199.105 59.6907 199.077 80.2724 171.404C91.0099 156.966 99.8913 145.141 100.009 145.125C100.127 145.109 101.659 145.836 103.415 146.742C115.632 153.041 128.529 155.312 141.825 153.505C159.023 151.168 173.914 142.38 184.134 128.536C192.182 117.635 196.398 104.963 196.583 91.121C196.641 86.7543 195.433 77.8614 194.185 73.4775ZM183.005 90.4156C182.909 105.064 177.053 118.361 166.571 127.73C158.776 134.699 150.5 138.543 140.167 139.997C135.19 140.696 132.119 140.754 127.378 140.236C109.047 138.232 92.7142 125.995 85.5809 108.92C83.7361 104.505 82.9163 101.532 82.1673 96.5425C80.6121 86.1819 81.9253 77.1212 86.3578 67.6329C93.4313 52.4899 107.753 42.0111 124.525 39.7057C132.962 38.5461 140.298 39.3099 148.501 42.2018C161.755 46.8744 172.628 56.9071 178.622 69.9954C181.149 75.5139 183.046 84.3463 183.005 90.4156Z" fill="#FFE010"/>
<defs>
<filter id="filter0_f_937_8992" x="34.0181" y="206.022" width="171.059" height="29.1494" filterUnits="userSpaceOnUse" color-interpolation-filters="sRGB">
<feFlood flood-opacity="0" result="BackgroundImageFix"/>
<feBlend mode="normal" in="SourceGraphic" in2="BackgroundImageFix" result="shape"/>
<feGaussianBlur stdDeviation="5.35229" result="effect1_foregroundBlur_937_8992"/>
</filter>
</defs>
</svg>