<svg width="45" height="46" viewBox="0 0 45 46" fill="none" xmlns="http://www.w3.org/2000/svg">
<path fill-rule="evenodd" clip-rule="evenodd" d="M20.8469 1.01389C20.6812 1.03317 20.1778 1.09091 19.7281 1.14229C12.9186 1.9199 6.62702 6.18817 3.1744 12.3727C1.91349 14.6312 0.999304 17.4374 0.611272 20.2405C0.462909 21.3122 0.462909 24.6764 0.611272 25.7481C1.519 32.3049 5.0156 37.8739 10.477 41.461C17.1574 45.8488 25.9107 46.1966 32.9809 42.3553C34.0605 41.7688 34.3052 41.5738 34.5212 41.1275C34.8928 40.36 34.651 39.4621 33.9373 38.9595C33.6289 38.7423 33.4912 38.7027 33.0403 38.7013C32.71 38.7003 32.4095 38.7528 32.2494 38.8392C30.8053 39.6193 30.2206 39.906 29.4096 40.2316C26.6289 41.348 23.6435 41.7797 20.7112 41.4896C13.3601 40.7624 7.13329 35.7779 4.84822 28.7914C3.5762 24.9022 3.57612 21.0827 4.84796 17.1972C6.68924 11.5716 11.0702 7.19659 16.7084 5.35281C20.5729 4.08906 24.4029 4.09155 28.279 5.3603C32.4853 6.73704 35.9638 9.49759 38.3582 13.3593C39.7544 15.6111 40.7058 18.4761 40.9819 21.2608C41.3752 25.2264 40.3811 29.354 38.1807 32.8909C37.6963 33.6695 37.6721 33.735 37.6716 34.2678C37.671 34.9389 37.8908 35.3593 38.4284 35.715C38.907 36.0318 39.749 36.045 40.2339 35.7436C40.7503 35.4226 41.8033 33.7129 42.6138 31.8794C46.6472 22.7552 44.0618 12.1039 36.2941 5.84342C33.1649 3.32134 29.6841 1.80596 25.58 1.17912C24.7221 1.04805 21.5163 0.936179 20.8469 1.01389ZM21.8977 13.6202C21.511 13.7385 20.9636 14.3072 20.853 14.7057C20.7965 14.9089 20.7616 16.2217 20.7613 18.1497L20.7608 21.2655L17.4627 21.2908L14.1645 21.3162L13.8158 21.5471C13.2769 21.9039 13.0587 22.3228 13.0587 23.0006C13.0587 23.4702 13.0979 23.6255 13.2896 23.9151C13.4165 24.1069 13.6682 24.3559 13.8489 24.4682L14.1774 24.6724L17.4653 24.6977L20.7531 24.7231L20.7785 28.0109L20.8038 31.2988L21.008 31.6273C21.1204 31.808 21.3693 32.0597 21.5611 32.1867C21.8518 32.379 22.0055 32.4176 22.482 32.4176C22.9584 32.4176 23.1121 32.379 23.4028 32.1867C23.5946 32.0597 23.8435 31.808 23.9559 31.6273L24.1601 31.2988L24.1854 28.0109L24.2108 24.7231L27.505 24.6977L30.7994 24.6724L31.1481 24.4415C31.687 24.0847 31.9052 23.6658 31.9052 22.988C31.9052 22.5184 31.866 22.3631 31.6743 22.0735C31.5474 21.8817 31.2957 21.6327 31.115 21.5204L30.7865 21.3162L27.4986 21.2909L24.2108 21.2655L24.1854 17.9777L24.1601 14.6898L23.9559 14.3613C23.55 13.7085 22.6584 13.3874 21.8977 13.6202Z" fill="white"/>
</svg>
