<svg width="157" height="50" viewBox="0 0 157 50" fill="none" xmlns="http://www.w3.org/2000/svg">
<path fill-rule="evenodd" clip-rule="evenodd" d="M142.936 13.8272C140.659 13.1896 137.905 13.1751 135.635 13.7886C134.975 13.9673 133.636 14.4761 133.019 14.7834C130.02 16.2752 127.644 18.9899 126.701 22.001C126.108 23.8915 125.995 26.0358 126.391 27.8477C126.468 28.1982 127.452 31.8721 128.578 36.0121L130.626 43.5393L131.154 43.745L131.682 43.9508L138.828 40.0052C142.759 37.8352 146.236 35.8993 146.555 35.7034C146.875 35.5075 147.455 35.0881 147.845 34.7713C150.914 32.2768 152.548 28.6378 152.296 24.8609C151.952 19.6976 148.229 15.3088 142.936 13.8272ZM141.698 22.2178C143.054 23.0859 143.81 24.7937 143.505 26.2994C143.32 27.215 142.85 27.9719 142.07 28.611C141.403 29.157 140.435 29.5288 139.549 29.5789C138.119 29.6599 136.916 29.1912 135.969 28.1841C135.383 27.5603 134.982 26.6554 134.926 25.8279C134.836 24.4919 135.334 23.3697 136.41 22.4882C137.341 21.7255 138.793 21.35 139.999 21.5597C140.575 21.6598 141.211 21.9063 141.698 22.2178Z" fill="#FFDE00"/>
<path d="M12.0033 37.2606C13.3834 37.2606 14.5893 36.8424 15.621 36.0059C16.6526 35.1694 17.2242 34.1238 17.3357 32.8691H20.9952C20.9255 34.1657 20.4794 35.3995 19.6569 36.5705C18.8344 37.7415 17.733 38.6756 16.3529 39.3727C14.9866 40.0697 13.5368 40.4182 12.0033 40.4182C8.92228 40.4182 6.46865 39.3936 4.64237 37.3442C2.83004 35.281 1.92387 32.4649 1.92387 28.8959V28.2477C1.92387 26.045 2.32816 24.0863 3.13674 22.3715C3.94532 20.6568 5.10243 19.3254 6.60806 18.3774C8.12764 17.4294 9.91906 16.9554 11.9823 16.9554C14.5196 16.9554 16.6247 17.7152 18.2976 19.2348C19.9845 20.7544 20.8837 22.727 20.9952 25.1528H17.3357C17.2242 23.689 16.6665 22.49 15.6628 21.556C14.673 20.608 13.4462 20.134 11.9823 20.134C10.0167 20.134 8.49011 20.845 7.4027 22.267C6.32924 23.675 5.79251 25.7174 5.79251 28.3941V29.126C5.79251 31.733 6.32924 33.7405 7.4027 35.1485C8.47616 36.5566 10.0097 37.2606 12.0033 37.2606ZM71.4758 17.3737L71.5804 19.8831C73.2394 17.9313 75.4769 16.9554 78.293 16.9554C81.4576 16.9554 83.6115 18.1683 84.7547 20.594C85.5075 19.5066 86.4834 18.6284 87.6823 17.9592C88.8952 17.29 90.3241 16.9554 91.9692 16.9554C96.9322 16.9554 99.4555 19.5833 99.5392 24.8391V40H95.6705V25.0691C95.6705 23.452 95.3011 22.2461 94.5622 21.4514C93.8233 20.6428 92.5826 20.2385 90.8399 20.2385C89.404 20.2385 88.212 20.6707 87.2641 21.5351C86.3161 22.3855 85.7654 23.5356 85.612 24.9855V40H81.7225V25.1737C81.7225 21.8836 80.1123 20.2385 76.8919 20.2385C74.3546 20.2385 72.619 21.319 71.6849 23.4798V40H67.8163V17.3737H71.4758ZM119.363 40C119.14 39.5539 118.959 38.7592 118.82 37.6161C117.021 39.4842 114.874 40.4182 112.379 40.4182C110.148 40.4182 108.315 39.7909 106.879 38.5362C105.457 37.2676 104.746 35.6643 104.746 33.7265C104.746 31.3705 105.638 29.5442 107.423 28.2477C109.221 26.9372 111.745 26.282 114.993 26.282H118.757V24.5045C118.757 23.1522 118.353 22.0788 117.544 21.2841C116.735 20.4755 115.543 20.0713 113.968 20.0713C112.588 20.0713 111.431 20.4198 110.497 21.1168C109.563 21.8139 109.096 22.6573 109.096 23.6471H105.206C105.206 22.5179 105.604 21.4305 106.398 20.3849C107.207 19.3254 108.294 18.4889 109.66 17.8755C111.041 17.2621 112.553 16.9554 114.198 16.9554C116.805 16.9554 118.848 17.6107 120.325 18.9211C121.803 20.2176 122.57 22.0091 122.626 24.2954V34.7094C122.626 36.7866 122.89 38.4386 123.42 39.6654V40H119.363ZM112.943 37.0515C114.156 37.0515 115.306 36.7378 116.394 36.1104C117.481 35.4831 118.269 34.6675 118.757 33.6638V29.0214H115.725C110.985 29.0214 108.615 30.4086 108.615 33.1828C108.615 34.3957 109.019 35.3437 109.828 36.0268C110.636 36.7099 111.675 37.0515 112.943 37.0515Z" fill="white"/>
<path fill-rule="evenodd" clip-rule="evenodd" d="M26.5351 22.5802C25.0046 24.4209 24.1621 26.725 24.1621 29.0704C24.1621 33.5078 27.126 37.47 31.5551 38.9533C35.2151 40.1789 39.2751 39.6019 42.3137 37.4242C44.5683 35.8083 46.0974 33.4266 46.5567 30.8152C46.6115 30.5047 46.67 30.2378 46.687 30.222C46.7041 30.2061 49.3251 30.1921 52.5118 30.1908C58.6184 30.1882 58.6249 30.1879 58.9786 29.8599C59.1533 29.698 59.3506 29.247 59.3374 29.0401C59.3231 28.8147 59.1434 28.4356 58.9781 28.2813C58.626 27.9528 58.6197 27.9525 52.5118 27.9499C49.3251 27.9486 46.7059 27.9363 46.6911 27.9225C46.6763 27.9087 46.6166 27.6382 46.5585 27.3212C46.1541 25.1163 45.1064 23.213 43.4384 21.6533C41.2808 19.6357 38.4539 18.5447 35.4064 18.5533C33.0066 18.56 30.7628 19.2385 28.7812 20.5565C28.156 20.9723 27.0239 21.9923 26.5351 22.5802ZM30.1231 22.3967C32.2096 20.989 34.7162 20.4639 37.1571 20.9232C38.9727 21.2648 40.3964 21.9719 41.6997 23.1795C42.3274 23.761 42.6617 24.1562 43.0917 24.8251C44.7543 27.4115 44.7543 30.7292 43.0917 33.3156C42.6617 33.9845 42.3274 34.3797 41.6997 34.9612C40.3964 36.1687 38.9727 36.8759 37.1571 37.2175C34.2596 37.7627 31.2535 36.9099 29.1457 34.9448C28.0854 33.9563 27.4146 32.9249 26.9534 31.5741C26.2082 29.3915 26.4756 26.9999 27.6942 24.9486C28.208 24.0838 29.2585 22.98 30.1231 22.3967Z" fill="#0198AF"/>
</svg>
