<svg width="112" height="34" viewBox="0 0 112 34" fill="none" xmlns="http://www.w3.org/2000/svg">
<path fill-rule="evenodd" clip-rule="evenodd" d="M102.506 8.99627C100.932 8.54916 99.0281 8.53899 97.4596 8.96922C97.0028 9.09453 96.0776 9.45133 95.6508 9.66681C93.5784 10.713 91.9358 12.6168 91.2836 14.7284C90.8741 16.0542 90.7956 17.5579 91.0696 18.8286C91.1226 19.0744 91.803 21.6508 92.5815 24.5541L93.997 29.8328L94.3619 29.9771L94.7269 30.1214L99.6665 27.3544C102.383 25.8326 104.787 24.475 105.008 24.3376C105.228 24.2002 105.63 23.9061 105.899 23.684C108.02 21.9346 109.15 19.3827 108.976 16.734C108.738 13.1131 106.164 10.0353 102.506 8.99627ZM101.65 14.8805C102.587 15.4892 103.11 16.6869 102.899 17.7428C102.771 18.3849 102.446 18.9157 101.907 19.3639C101.446 19.7468 100.777 20.0075 100.165 20.0426C99.1762 20.0994 98.3447 19.7708 97.6903 19.0645C97.2849 18.627 97.008 17.9924 96.9693 17.4121C96.9067 16.4752 97.2514 15.6883 97.9951 15.0701C98.6385 14.5352 99.6419 14.2719 100.476 14.4189C100.874 14.4892 101.314 14.662 101.65 14.8805Z" fill="#FFDE00"/>
<path d="M8.85308 25.0807C9.82007 25.0807 10.665 24.7876 11.3878 24.2016C12.1106 23.6155 12.5111 22.8829 12.5892 22.0039H15.1532C15.1044 22.9123 14.7918 23.7767 14.2155 24.5972C13.6392 25.4176 12.8676 26.0721 11.9006 26.5605C10.9434 27.0488 9.92752 27.293 8.85308 27.293C6.69444 27.293 4.97534 26.5751 3.69578 25.1393C2.42599 23.6937 1.79109 21.7206 1.79109 19.2201V18.7659C1.79109 17.2226 2.07435 15.8503 2.64088 14.6488C3.2074 13.4474 4.01811 12.5146 5.07301 11.8504C6.13768 11.1862 7.39282 10.8541 8.83843 10.8541C10.6161 10.8541 12.091 11.3865 13.2632 12.4511C14.445 13.5158 15.0751 14.8979 15.1532 16.5975H12.5892C12.5111 15.5719 12.1203 14.7319 11.4171 14.0774C10.7236 13.4132 9.86403 13.0811 8.83843 13.0811C7.46119 13.0811 6.39164 13.5793 5.62977 14.5756C4.87766 15.5621 4.50161 16.9931 4.50161 18.8685V19.3813C4.50161 21.2078 4.87766 22.6143 5.62977 23.6009C6.38187 24.5874 7.45631 25.0807 8.85308 25.0807ZM50.5217 11.1472L50.595 12.9053C51.7573 11.5379 53.325 10.8541 55.2981 10.8541C57.5154 10.8541 59.0244 11.7039 59.8254 13.4035C60.3528 12.6416 61.0366 12.0262 61.8766 11.5574C62.7264 11.0886 63.7276 10.8541 64.8801 10.8541C68.3574 10.8541 70.1253 12.6953 70.184 16.3777V27H67.4734V16.5389C67.4734 15.4058 67.2146 14.5609 66.6969 14.0042C66.1792 13.4377 65.3099 13.1544 64.089 13.1544C63.0829 13.1544 62.2478 13.4572 61.5836 14.0628C60.9194 14.6586 60.5335 15.4644 60.4261 16.4803V27H57.7009V16.6121C57.7009 14.307 56.5728 13.1544 54.3165 13.1544C52.5387 13.1544 51.3227 13.9114 50.6683 15.4254V27H47.9577V11.1472H50.5217ZM84.0735 27C83.9172 26.6874 83.7902 26.1307 83.6926 25.3297C82.4325 26.6386 80.9283 27.293 79.1799 27.293C77.6171 27.293 76.3327 26.8535 75.3266 25.9744C74.3303 25.0855 73.8322 23.9623 73.8322 22.6046C73.8322 20.9538 74.4573 19.6743 75.7075 18.7659C76.9676 17.8477 78.7355 17.3887 81.0114 17.3887H83.6486V16.1433C83.6486 15.1958 83.3654 14.4437 82.7988 13.887C82.2323 13.3205 81.3972 13.0372 80.2934 13.0372C79.3264 13.0372 78.5157 13.2814 77.8613 13.7698C77.2069 14.2581 76.8797 14.8491 76.8797 15.5426H74.1545C74.1545 14.7514 74.4329 13.9895 74.9896 13.257C75.5561 12.5146 76.318 11.9286 77.2752 11.4988C78.2422 11.069 79.302 10.8541 80.4546 10.8541C82.2811 10.8541 83.7121 11.3132 84.7475 12.2314C85.7828 13.1398 86.3201 14.3949 86.3591 15.9968V23.2932C86.3591 24.7486 86.5447 25.906 86.9159 26.7656V27H84.0735ZM79.5755 24.9341C80.4253 24.9341 81.2311 24.7144 81.993 24.2748C82.7549 23.8353 83.3067 23.2639 83.6486 22.5606V19.308H81.5242C78.2032 19.308 76.5427 20.2799 76.5427 22.2236C76.5427 23.0734 76.8259 23.7376 77.3925 24.2162C77.959 24.6948 78.6867 24.9341 79.5755 24.9341Z" fill="#93C21F"/>
<path fill-rule="evenodd" clip-rule="evenodd" d="M22.5244 14.8719C21.5412 16.1846 21 17.8277 21 19.5004C21 22.665 22.904 25.4906 25.7492 26.5484C28.1002 27.4225 30.7083 27.011 32.6603 25.458C34.1087 24.3056 35.0909 22.6071 35.386 20.7447C35.4211 20.5233 35.4587 20.3329 35.4697 20.3216C35.4806 20.3103 37.1644 20.3003 39.2114 20.2994C43.1342 20.2976 43.1384 20.2973 43.3656 20.0634C43.4778 19.948 43.6046 19.6263 43.5961 19.4788C43.5869 19.318 43.4715 19.0477 43.3653 18.9376C43.1391 18.7034 43.1351 18.7032 39.2114 18.7013C37.1644 18.7004 35.4818 18.6916 35.4723 18.6818C35.4628 18.6719 35.4244 18.479 35.3871 18.253C35.1273 16.6805 34.4543 15.3232 33.3828 14.2108C31.9968 12.772 30.1808 11.9939 28.2232 12C26.6816 12.0049 25.2402 12.4887 23.9672 13.4287C23.5656 13.7252 22.8384 14.4526 22.5244 14.8719ZM24.8292 14.741C26.1696 13.7371 27.7798 13.3626 29.3478 13.6902C30.5141 13.9338 31.4287 14.4381 32.2659 15.2992C32.6691 15.7139 32.8839 15.9958 33.1601 16.4728C34.2281 18.3173 34.2281 20.6834 33.1601 22.5279C32.8839 23.0049 32.6691 23.2868 32.2659 23.7015C31.4287 24.5626 30.5141 25.067 29.3478 25.3106C27.4865 25.6994 25.5554 25.0912 24.2014 23.6898C23.5202 22.9848 23.0894 22.2493 22.7931 21.2859C22.3144 19.7294 22.4862 18.0238 23.2689 16.5609C23.599 15.9441 24.2739 15.157 24.8292 14.741Z" fill="#0198AF"/>
</svg>
