<svg width="157" height="230" viewBox="0 0 157 230" fill="none" xmlns="http://www.w3.org/2000/svg">
    <g filter="url(#filter0_f_937_8996)">
    <ellipse cx="80.2161" cy="213.928" rx="46.1243" ry="3.99866" fill="#898888" fill-opacity="0.6"/>
    </g>
    <path fill-rule="evenodd" clip-rule="evenodd" d="M75.0969 0.400155C61.6762 1.77644 47.0006 7.61225 36.1976 15.8677C33.0514 18.2721 26.9815 23.9515 24.3308 26.9715C11.4597 41.6347 4.41145 61.7029 5.59177 80.3282C6.33278 92.0222 10.1421 104.087 15.9791 113.224C17.1082 114.991 29.9031 133.13 44.4125 153.533L70.7927 190.629H74.0236H77.2548L107.131 153.531C123.563 133.127 138.068 114.988 139.363 113.222C140.659 111.456 142.881 107.897 144.301 105.314C155.487 84.971 156.688 61.4002 147.575 41.1216C135.114 13.3989 106.286 -2.79852 75.0969 0.400155ZM85.782 49.3134C94.7763 51.1872 102.311 58.9779 103.79 67.9324C104.689 73.3779 103.748 78.5598 100.915 83.7581C98.4958 88.1994 94.1141 92.3275 89.5065 94.5067C82.0677 98.0252 74.7071 98.0252 67.5999 94.5067C63.1978 92.3275 59.2051 88.1994 57.2041 83.7581C53.9732 76.5878 54.3152 69.331 58.222 62.1606C61.6017 55.9573 68.5465 50.7697 75.3943 49.3342C78.6639 48.6487 82.5534 48.6409 85.782 49.3134Z" fill="#AC3970"/>
    <defs>
    <filter id="filter0_f_937_8996" x="22.3718" y="198.21" width="115.689" height="31.4372" filterUnits="userSpaceOnUse" color-interpolation-filters="sRGB">
    <feFlood flood-opacity="0" result="BackgroundImageFix"/>
    <feBlend mode="normal" in="SourceGraphic" in2="BackgroundImageFix" result="shape"/>
    <feGaussianBlur stdDeviation="5.86002" result="effect1_foregroundBlur_937_8996"/>
    </filter>
    </defs>
    </svg>
    